<?xml version="1.0" encoding="UTF-8" standalone="no"?>
<svg
   xmlns:dc="http://purl.org/dc/elements/1.1/"
   xmlns:cc="http://creativecommons.org/ns#"
   xmlns:rdf="http://www.w3.org/1999/02/22-rdf-syntax-ns#"
   xmlns:svg="http://www.w3.org/2000/svg"
   xmlns="http://www.w3.org/2000/svg"
   xmlns:sodipodi="http://sodipodi.sourceforge.net/DTD/sodipodi-0.dtd"
   xmlns:inkscape="http://www.inkscape.org/namespaces/inkscape"
   width="48"
   height="48"
   viewBox="0 0 48 48"
   id="svg3033"
   version="1.1"
   inkscape:version="0.48.5 r10040"
   sodipodi:docname="ic_rename_deleted_48px.svg"
   inkscape:export-filename="/home/r/ActivityDiary/artwork/icons/ic_rename_deleted_96x96.png"
   inkscape:export-xdpi="180"
   inkscape:export-ydpi="180">
  <metadata
     id="metadata3041">
    <rdf:RDF>
      <cc:Work
         rdf:about="">
        <dc:format>image/svg+xml</dc:format>
        <dc:type
           rdf:resource="http://purl.org/dc/dcmitype/StillImage" />
        <dc:title></dc:title>
        <dc:contributor>
          <cc:Agent>
            <dc:title>based on </dc:title>
          </cc:Agent>
        </dc:contributor>
        <cc:license
           rdf:resource="http://www.apache.org/licenses/LICENSE-2.0" />
        <dc:source>https://www.materialpalette.com/icons</dc:source>
        <dc:rights>
          <cc:Agent>
            <dc:title>Google, modification to undelete by Raphael Mack</dc:title>
          </cc:Agent>
        </dc:rights>
      </cc:Work>
    </rdf:RDF>
  </metadata>
  <defs
     id="defs3039" />
  <sodipodi:namedview
     pagecolor="#ffffff"
     bordercolor="#666666"
     borderopacity="1"
     objecttolerance="10"
     gridtolerance="10"
     guidetolerance="10"
     inkscape:pageopacity="0"
     inkscape:pageshadow="2"
     inkscape:window-width="1280"
     inkscape:window-height="958"
     id="namedview3037"
     showgrid="false"
     inkscape:zoom="5.6568543"
     inkscape:cx="30.136731"
     inkscape:cy="27.12887"
     inkscape:window-x="0"
     inkscape:window-y="27"
     inkscape:window-maximized="1"
     inkscape:current-layer="svg3033" />
  <path
     d="M 12 14 L 12 38 C 12 40.21 13.79 42 16 42 L 32 42 C 34.21 42 36 40.21 36 38 L 36 14 L 12 14 z M 30.1875 18.46875 C 30.445209 18.46875 30.71014 18.554972 30.90625 18.75 L 33.25 21.09375 C 33.642222 21.483804 33.642222 22.109945 33.25 22.5 L 31.40625 24.34375 L 27.625 20.59375 L 29.46875 18.75 C 29.664861 18.554972 29.929791 18.46875 30.1875 18.46875 z M 26.5625 21.65625 L 30.34375 25.40625 L 19.21875 36.46875 L 15.4375 36.46875 L 15.4375 32.71875 L 26.5625 21.65625 z "
     id="path4589" />
  <path
     d="m 37.985154,9.092654 -6.999999,-0.00226 -1.999353,-2.0006471 -9.999999,-0.00323 -2.000647,1.9993521 -6.999999,-0.00226 -0.0013,4 27.999998,0.0091 0.0013,-4.0000008 z"
     id="path3035"
     inkscape:connector-curvature="0" />
</svg>
