<?xml version="1.0" encoding="UTF-8" standalone="no"?>
<!-- Created with Inkscape (http://www.inkscape.org/) -->

<svg
   xmlns:dc="http://purl.org/dc/elements/1.1/"
   xmlns:cc="http://creativecommons.org/ns#"
   xmlns:rdf="http://www.w3.org/1999/02/22-rdf-syntax-ns#"
   xmlns:svg="http://www.w3.org/2000/svg"
   xmlns="http://www.w3.org/2000/svg"
   xmlns:sodipodi="http://sodipodi.sourceforge.net/DTD/sodipodi-0.dtd"
   xmlns:inkscape="http://www.inkscape.org/namespaces/inkscape"
   width="64px"
   height="64px"
   id="svg3009"
   version="1.1"
   inkscape:version="0.48.5 r10040"
   sodipodi:docname="ic_nav_history.svg"
   inkscape:export-filename="/home/r/ActivityDiary/artwork/ic_nav_history.png"
   inkscape:export-xdpi="270"
   inkscape:export-ydpi="270">
  <defs
     id="defs3011" />
  <sodipodi:namedview
     id="base"
     pagecolor="#ffffff"
     bordercolor="#666666"
     borderopacity="1.0"
     inkscape:pageopacity="0.0"
     inkscape:pageshadow="2"
     inkscape:zoom="5.656854"
     inkscape:cx="-24.965536"
     inkscape:cy="8.3327567"
     inkscape:current-layer="layer1"
     showgrid="true"
     inkscape:document-units="px"
     inkscape:grid-bbox="true"
     inkscape:window-width="1280"
     inkscape:window-height="958"
     inkscape:window-x="0"
     inkscape:window-y="27"
     inkscape:window-maximized="1">
    <inkscape:grid
       type="xygrid"
       id="grid5004"
       empspacing="5"
       visible="true"
       enabled="true"
       snapvisiblegridlinesonly="true"
       spacingx="0.5px"
       spacingy="0.5px" />
  </sodipodi:namedview>
  <metadata
     id="metadata3014">
    <rdf:RDF>
      <cc:Work
         rdf:about="">
        <dc:format>image/svg+xml</dc:format>
        <dc:type
           rdf:resource="http://purl.org/dc/dcmitype/StillImage" />
        <dc:title></dc:title>
        <dc:rights>
          <cc:Agent>
            <dc:title>CC-BY-4.0</dc:title>
          </cc:Agent>
        </dc:rights>
        <dc:creator>
          <cc:Agent>
            <dc:title>Raphael Mack</dc:title>
          </cc:Agent>
        </dc:creator>
        <dc:date>2017-12-04</dc:date>
      </cc:Work>
    </rdf:RDF>
  </metadata>
  <g
     id="layer1"
     inkscape:label="Layer 1"
     inkscape:groupmode="layer">
    <rect
       id="rect3038"
       width="17.272728"
       height="9.818181"
       x="42.5"
       y="18"
       ry="2.2657344"
       style="fill:#d4aa00" />
    <rect
       id="rect3040"
       width="20"
       height="10.909091"
       x="5"
       y="21.090908"
       ry="2.909091"
       style="fill:#ff6600" />
    <rect
       id="rect3038-8"
       width="27.272728"
       height="9.818181"
       x="20.227272"
       y="4.6818199"
       ry="2.2657344"
       style="fill:#aa0000;fill-opacity:1" />
    <path
       style="fill:#000000;fill-opacity:1;stroke:#000000;stroke-width:1;stroke-linecap:round;stroke-linejoin:round;stroke-miterlimit:4;stroke-opacity:1;stroke-dasharray:none"
       d="m 4,47.5 28.5,0 2.5,4 -2.5,4 -28.5,0 2,-4 z"
       id="path5534"
       inkscape:connector-curvature="0"
       sodipodi:nodetypes="ccccccc" />
    <path
       style="fill:#000000;fill-opacity:1;stroke:#000000;stroke-width:1;stroke-linecap:round;stroke-linejoin:round;stroke-miterlimit:4;stroke-opacity:1;stroke-dasharray:none"
       d="m 38,47.5 20,0 2,4 -2,4 -20,0 2,-4 z"
       id="path5534-1"
       inkscape:connector-curvature="0"
       sodipodi:nodetypes="ccccccc" />
    <path
       style="fill:#aa0000;fill-opacity:1;stroke:none"
       d="m 29,14.5 0,30.609559 2,0 L 31,14.5 z"
       id="path4656-0-0"
       inkscape:connector-curvature="0" />
    <path
       sodipodi:type="arc"
       style="fill:#aa0000;fill-opacity:1;stroke:none"
       id="path4676-0"
       sodipodi:cx="178.125"
       sodipodi:cy="371.875"
       sodipodi:rx="9.375"
       sodipodi:ry="9.375"
       d="m 187.5,371.875 a 9.375,9.375 0 1 1 -18.75,0 9.375,9.375 0 1 1 18.75,0 z"
       transform="matrix(0.47999936,0,0,0.47999967,-55.499887,-133.99988)" />
    <path
       style="fill:#d4aa00;fill-opacity:1;stroke:none"
       d="m 46.5,27.5 0,17.609559 2,0 L 48.5,27.5 z"
       id="path4656-0-0-3"
       inkscape:connector-curvature="0" />
    <path
       sodipodi:type="arc"
       style="fill:#d4aa00;fill-opacity:1;stroke:none"
       id="path4676-0-6"
       sodipodi:cx="178.125"
       sodipodi:cy="371.875"
       sodipodi:rx="9.375"
       sodipodi:ry="9.375"
       d="m 187.5,371.875 a 9.375,9.375 0 1 1 -18.75,0 9.375,9.375 0 1 1 18.75,0 z"
       transform="matrix(0.48,0,0,0.47707874,-38,-132.94104)" />
    <path
       style="fill:#ff6600;fill-opacity:1;stroke:none"
       d="m 9,32 0,13.109561 2,0 L 11,32 z"
       id="path4656-0-0-3-7"
       inkscape:connector-curvature="0" />
    <path
       sodipodi:type="arc"
       style="fill:#ff6600;fill-opacity:1;stroke:none"
       id="path4676-0-6-5"
       sodipodi:cx="178.125"
       sodipodi:cy="371.875"
       sodipodi:rx="9.375"
       sodipodi:ry="9.375"
       d="m 187.5,371.875 a 9.375,9.375 0 1 1 -18.75,0 9.375,9.375 0 1 1 18.75,0 z"
       transform="matrix(0.48,0,0,0.4666665,-75.5,-128.9166)" />
  </g>
</svg>
