<?xml version="1.0" encoding="utf-8"?>
<!-- Generator: Adobe Illustrator 15.1.0, SVG Export Plug-In . SVG Version: 6.00 Build 0)  -->
<!DOCTYPE svg PUBLIC "-//W3C//DTD SVG 1.1//EN" "http://www.w3.org/Graphics/SVG/1.1/DTD/svg11.dtd">
<svg version="1.1" xmlns="http://www.w3.org/2000/svg" xmlns:xlink="http://www.w3.org/1999/xlink" x="0px" y="0px" width="1024px"
	 height="500px" viewBox="0 0 1024 500" enable-background="new 0 0 1024 500" xml:space="preserve">
<g id="Layer_1">
	<rect fill="#FF6600" width="1024" height="500"/>
	<g>
		<path fill="#FFFFFF" d="M287.349,188.305c1.439,3.221,3.379,6.011,5.84,8.37c2.449,2.37,5.33,4.22,8.619,5.58
			c3.291,1.36,6.82,2.04,10.58,2.04c3.49,0,6.83-0.61,10.01-1.84c3.191-1.23,5.951-3.021,8.291-5.36c0.82-0.819,1.43-1.7,1.84-2.649
			c0.41-0.95,0.631-1.9,0.65-2.851c0.01-0.95-0.15-1.85-0.51-2.7c-0.352-0.859-0.9-1.619-1.641-2.289
			c-1.119-0.971-2.189-1.561-3.211-1.79c-1.029-0.221-2-0.23-2.93-0.03c-0.93,0.21-1.799,0.57-2.6,1.09
			c-0.799,0.52-1.549,1.06-2.26,1.62c-1.561,1.189-3.051,1.96-4.461,2.32c-1.42,0.35-2.908,0.489-4.469,0.42
			c-1.67-0.04-3.23-0.44-4.66-1.2c-1.43-0.771-2.67-1.73-3.711-2.91c-1.039-1.17-1.859-2.49-2.449-3.96
			c-0.381-0.93-0.641-1.86-0.77-2.8c-0.09-0.54-0.131-1.09-0.131-1.641c0-1.47,0.281-2.92,0.84-4.359
			c0.021-0.05,0.041-0.11,0.061-0.16c0.59-1.48,1.41-2.82,2.449-4.021c1.041-1.189,2.281-2.149,3.711-2.899
			c1.43-0.74,2.99-1.15,4.66-1.23c1.561-0.029,3.061,0.13,4.5,0.48c1.43,0.35,2.91,1.109,4.43,2.26c0.711,0.561,1.461,1.1,2.26,1.62
			c0.801,0.52,1.67,0.89,2.6,1.11c0.93,0.229,1.9,0.229,2.93,0c1.021-0.221,2.092-0.811,3.211-1.78c0.74-0.67,1.301-1.43,1.67-2.29
			s0.541-1.76,0.5-2.71c-0.029-0.95-0.26-1.9-0.67-2.87s-1.02-1.86-1.84-2.68c-2.34-2.34-5.1-4.13-8.26-5.36
			c-3.16-1.229-6.51-1.84-10.041-1.84c-3.76,0-7.289,0.7-10.58,2.09c-3.289,1.4-6.17,3.31-8.619,5.72
			c-2.461,2.42-4.4,5.271-5.84,8.54c-0.84,1.931-1.43,3.94-1.77,6.021c-0.25,1.46-0.371,2.95-0.371,4.479
			c0,0.511,0.01,1.021,0.041,1.521C285.419,182.545,286.118,185.525,287.349,188.305z"/>
		<path fill="#FFFFFF" d="M338.558,162.995c0.631,0.63,1.371,1.13,2.211,1.51c0.83,0.37,1.73,0.55,2.699,0.55h2.631v31.82
			c0,0.96,0.17,1.86,0.529,2.68c0.35,0.811,0.84,1.53,1.471,2.141c0.641,0.62,1.369,1.1,2.209,1.46
			c0.84,0.35,1.74,0.529,2.711,0.529c0.959,0,1.869-0.18,2.699-0.529c0.84-0.36,1.57-0.84,2.211-1.46
			c0.629-0.61,1.119-1.33,1.48-2.141c0.35-0.819,0.529-1.72,0.529-2.68v-31.82h3.07c0.959,0,1.869-0.18,2.73-0.55
			c0.859-0.38,1.59-0.88,2.199-1.51c0.619-0.63,1.1-1.37,1.459-2.2c0.352-0.84,0.531-1.74,0.531-2.71s-0.18-1.87-0.531-2.71
			c-0.359-0.83-0.84-1.56-1.459-2.17c-0.609-0.62-1.34-1.1-2.199-1.46c-0.861-0.351-1.771-0.53-2.73-0.53h-3.07v-12.16
			c0-0.97-0.18-1.859-0.529-2.68c-0.361-0.82-0.852-1.54-1.48-2.15c-0.641-0.609-1.371-1.1-2.211-1.449
			c-0.83-0.36-1.74-0.53-2.699-0.53c-0.971,0-1.871,0.17-2.711,0.53c-0.84,0.35-1.568,0.84-2.209,1.449
			c-0.631,0.61-1.121,1.33-1.471,2.15c-0.359,0.82-0.529,1.71-0.529,2.68v12.16h-2.631c-0.969,0-1.869,0.18-2.699,0.53
			c-0.84,0.36-1.58,0.84-2.211,1.46c-0.629,0.61-1.129,1.34-1.479,2.17c-0.352,0.84-0.531,1.74-0.531,2.71s0.18,1.87,0.531,2.71
			C337.429,161.625,337.929,162.365,338.558,162.995z"/>
		<path fill="#FFFFFF" d="M377.909,144.245c0.67,0.67,1.459,1.2,2.369,1.59s1.869,0.58,2.869,0.58c1.012,0,1.961-0.19,2.881-0.58
			c0.91-0.39,1.711-0.92,2.4-1.59c0.68-0.67,1.219-1.46,1.619-2.37c0.391-0.92,0.58-1.87,0.58-2.88c0-1.04-0.189-2.01-0.58-2.9
			c-0.4-0.89-0.939-1.68-1.619-2.34c-0.689-0.67-1.49-1.21-2.4-1.6c-0.92-0.391-1.869-0.58-2.881-0.58c-1,0-1.959,0.189-2.869,0.58
			c-0.91,0.39-1.699,0.93-2.369,1.6c-0.67,0.66-1.201,1.45-1.592,2.34c-0.389,0.891-0.59,1.86-0.59,2.9c0,1.01,0.201,1.96,0.59,2.88
			C376.708,142.785,377.239,143.575,377.909,144.245z"/>
		<path fill="#FFFFFF" d="M388.179,153.065c-0.6-0.641-1.32-1.131-2.15-1.48c-0.84-0.36-1.721-0.53-2.65-0.53
			c-0.969,0-1.889,0.17-2.77,0.53c-0.869,0.35-1.619,0.84-2.26,1.48c-0.631,0.63-1.131,1.359-1.5,2.199
			c-0.381,0.841-0.561,1.721-0.561,2.65v38.9c0,0.97,0.18,1.859,0.561,2.68c0.369,0.82,0.869,1.54,1.5,2.18
			c0.641,0.63,1.369,1.12,2.209,1.48c0.83,0.35,1.74,0.529,2.701,0.529c0.93,0,1.82-0.18,2.66-0.529
			c0.83-0.36,1.57-0.851,2.199-1.48c0.631-0.64,1.121-1.359,1.48-2.18c0.35-0.82,0.529-1.71,0.529-2.68v-38.9
			c0-0.93-0.18-1.81-0.529-2.65C389.239,154.425,388.769,153.695,388.179,153.065z"/>
		<path fill="#FFFFFF" d="M403.339,173.365l2.779,6l9.35,20.189c0.41,0.851,0.91,1.561,1.5,2.12c0.641,0.63,1.311,1.09,2.01,1.391
			c0.301,0.149,0.621,0.26,0.951,0.34c0.34,0.069,0.65,0.149,0.949,0.22c0.15,0,0.281,0.01,0.391,0.03
			c0.109,0.02,0.24,0.029,0.391,0.029h0.67c0.148,0,0.299-0.02,0.449-0.06c0.699-0.11,1.34-0.3,1.9-0.56
			c0.74-0.33,1.35-0.74,1.84-1.23c0.67-0.59,1.23-1.35,1.67-2.28l9.311-20.189l2.76-6l5.74-12.44c0.398-0.89,0.619-1.79,0.639-2.7
			c0.021-0.909-0.129-1.79-0.449-2.63c-0.32-0.83-0.791-1.59-1.42-2.26c-0.641-0.67-1.4-1.2-2.291-1.61
			c-0.889-0.38-1.799-0.569-2.709-0.59c-0.91-0.02-1.77,0.13-2.59,0.45c-0.82,0.31-1.57,0.79-2.24,1.42s-1.189,1.38-1.561,2.23
			l-8.029,18.13l-2.66,6l-0.859,1.939l-0.871-1.939l-2.699-6l-8.15-18.13c-0.41-0.891-0.939-1.641-1.59-2.261
			c-0.65-0.609-1.391-1.09-2.211-1.42c-0.809-0.34-1.68-0.489-2.59-0.479c-0.91,0.02-1.82,0.22-2.709,0.59
			c-0.85,0.41-1.6,0.95-2.23,1.62s-1.109,1.42-1.42,2.26c-0.32,0.84-0.471,1.71-0.449,2.62c0.02,0.91,0.229,1.82,0.639,2.71
			L403.339,173.365z"/>
		<path fill="#FFFFFF" d="M455.089,144.245c0.67,0.67,1.459,1.2,2.369,1.59c0.92,0.39,1.871,0.58,2.881,0.58
			c1,0,1.959-0.19,2.869-0.58s1.711-0.92,2.4-1.59s1.23-1.46,1.619-2.37c0.391-0.92,0.59-1.87,0.59-2.88c0-1.04-0.199-2.01-0.59-2.9
			c-0.389-0.89-0.93-1.68-1.619-2.34c-0.689-0.67-1.49-1.21-2.4-1.6c-0.91-0.391-1.869-0.58-2.869-0.58
			c-1.01,0-1.961,0.189-2.881,0.58c-0.91,0.39-1.699,0.93-2.369,1.6c-0.67,0.66-1.201,1.45-1.59,2.34
			c-0.391,0.891-0.58,1.86-0.58,2.9c0,1.01,0.189,1.96,0.58,2.88C453.888,142.785,454.419,143.575,455.089,144.245z"/>
		<path fill="#FFFFFF" d="M465.358,153.065c-0.59-0.641-1.311-1.131-2.15-1.48c-0.83-0.36-1.719-0.53-2.65-0.53
			c-0.969,0-1.889,0.17-2.76,0.53c-0.879,0.35-1.629,0.84-2.26,1.48c-0.629,0.63-1.141,1.359-1.51,2.199
			c-0.369,0.841-0.561,1.721-0.561,2.65v38.9c0,0.97,0.191,1.859,0.561,2.68s0.881,1.54,1.51,2.18c0.631,0.63,1.371,1.12,2.201,1.48
			c0.84,0.35,1.738,0.529,2.709,0.529c0.93,0,1.811-0.18,2.65-0.529c0.84-0.36,1.57-0.851,2.209-1.48
			c0.631-0.64,1.121-1.359,1.471-2.18c0.359-0.82,0.529-1.71,0.529-2.68v-38.9c0-0.93-0.17-1.81-0.529-2.65
			C466.429,154.425,465.958,153.695,465.358,153.065z"/>
		<path fill="#FFFFFF" d="M475.798,162.995c0.631,0.63,1.371,1.13,2.201,1.51c0.84,0.37,1.74,0.55,2.709,0.55h2.621v31.82
			c0,0.96,0.18,1.86,0.529,2.68c0.359,0.811,0.85,1.53,1.48,2.141c0.629,0.62,1.369,1.1,2.209,1.46
			c0.83,0.35,1.73,0.529,2.701,0.529c0.969,0,1.869-0.18,2.709-0.529c0.84-0.36,1.57-0.84,2.201-1.46
			c0.639-0.61,1.129-1.33,1.479-2.141c0.361-0.819,0.531-1.72,0.531-2.68v-31.82h3.068c0.971,0,1.88-0.18,2.74-0.55
			c0.85-0.38,1.59-0.88,2.2-1.51c0.62-0.63,1.1-1.37,1.45-2.2c0.359-0.84,0.529-1.74,0.529-2.71s-0.17-1.87-0.529-2.71
			c-0.351-0.83-0.83-1.56-1.45-2.17c-0.61-0.62-1.351-1.1-2.2-1.46c-0.86-0.351-1.77-0.53-2.74-0.53h-3.068v-12.16
			c0-0.97-0.17-1.859-0.531-2.68c-0.35-0.82-0.84-1.54-1.479-2.15c-0.631-0.609-1.361-1.1-2.201-1.449
			c-0.84-0.36-1.74-0.53-2.709-0.53c-0.971,0-1.871,0.17-2.701,0.53c-0.84,0.35-1.58,0.84-2.209,1.449
			c-0.631,0.61-1.121,1.33-1.48,2.15c-0.35,0.82-0.529,1.71-0.529,2.68v12.16h-2.621c-0.969,0-1.869,0.18-2.709,0.53
			c-0.83,0.36-1.57,0.84-2.201,1.46c-0.629,0.61-1.129,1.34-1.48,2.17c-0.35,0.84-0.529,1.74-0.529,2.71s0.18,1.87,0.529,2.71
			C474.669,161.625,475.169,162.365,475.798,162.995z"/>
		<path fill="#FFFFFF" d="M515.558,173.365l2.78,6l8.239,17.84l-7.47,16.58c-0.859,1.859-1.06,3.63-0.59,5.3
			c0.46,1.67,1.59,2.92,3.38,3.74c0.851,0.41,1.74,0.62,2.65,0.64c0.91,0.021,1.779-0.14,2.62-0.47c0.84-0.34,1.6-0.811,2.29-1.43
			c0.689-0.61,1.239-1.36,1.64-2.261l18.56-39.939l2.79-6l5.78-12.44c0.41-0.89,0.62-1.79,0.64-2.7
			c0.021-0.909-0.13-1.79-0.449-2.63c-0.311-0.83-0.79-1.59-1.42-2.26c-0.631-0.67-1.391-1.2-2.29-1.61
			c-0.891-0.38-1.79-0.569-2.7-0.59c-0.92-0.02-1.78,0.13-2.601,0.45c-0.819,0.31-1.56,0.79-2.229,1.42s-1.19,1.38-1.561,2.23
			l-8.199,18.13l-2.721,6l-0.75,1.66l-0.75-1.66l-2.699-6l-8.16-18.13c-0.41-0.891-0.94-1.641-1.59-2.261
			c-0.65-0.609-1.381-1.09-2.2-1.42c-0.82-0.34-1.69-0.489-2.601-0.479c-0.909,0.02-1.81,0.22-2.699,0.59
			c-0.86,0.41-1.601,0.95-2.24,1.62c-0.63,0.67-1.101,1.42-1.42,2.26c-0.32,0.84-0.471,1.71-0.45,2.62
			c0.02,0.91,0.24,1.82,0.65,2.71L515.558,173.365z"/>
		<path fill="#FFFFFF" d="M569.388,201.695c0.63,0.62,1.37,1.1,2.21,1.46c0.83,0.35,1.729,0.529,2.7,0.529h12.45
			c3.35,0,6.56-0.42,9.649-1.26s5.98-2.02,8.68-3.54c2.7-1.529,5.15-3.359,7.37-5.5c2.21-2.14,4.11-4.529,5.69-7.17
			c1.28-2.14,2.34-4.43,3.15-6.85c0.189-0.55,0.369-1.12,0.529-1.69c0.41-1.399,0.721-2.84,0.931-4.31
			c0.26-1.721,0.39-3.48,0.39-5.29c0-3.351-0.44-6.561-1.32-9.63c-0.87-3.07-2.1-5.92-3.68-8.57c-1.58-2.64-3.48-5.05-5.69-7.22
			c-2.22-2.181-4.67-4.04-7.37-5.58c-2.699-1.55-5.59-2.74-8.68-3.58c-3.09-0.83-6.3-1.25-9.649-1.25h-12.45
			c-0.971,0-1.87,0.17-2.7,0.53c-0.84,0.35-1.58,0.84-2.21,1.449c-0.63,0.61-1.12,1.33-1.48,2.15c-0.35,0.82-0.529,1.71-0.529,2.68
			v57.82c0,0.96,0.18,1.86,0.529,2.68C568.268,200.365,568.758,201.085,569.388,201.695z M581.218,146.255h5.58
			c3.13,0,6.05,0.561,8.77,1.67c2.71,1.12,5.08,2.66,7.11,4.61c2.03,1.96,3.62,4.27,4.77,6.93c1.16,2.67,1.73,5.54,1.73,8.641
			c0,1.84-0.19,3.59-0.59,5.26c-0.271,1.21-0.65,2.37-1.141,3.479c-0.38,0.88-0.81,1.721-1.29,2.521
			c-0.96,1.62-2.119,3.069-3.479,4.359c-2.03,1.91-4.4,3.41-7.11,4.49c-2.72,1.08-5.64,1.62-8.77,1.62h-5.58V146.255z"/>
		<path fill="#FFFFFF" d="M643.338,153.065c-0.601-0.641-1.311-1.131-2.15-1.48c-0.84-0.36-1.72-0.53-2.649-0.53
			c-0.971,0-1.891,0.17-2.761,0.53c-0.88,0.35-1.63,0.84-2.26,1.48c-0.64,0.63-1.14,1.359-1.51,2.199
			c-0.37,0.841-0.561,1.721-0.561,2.65v38.9c0,0.97,0.19,1.859,0.561,2.68s0.87,1.54,1.51,2.18c0.63,0.63,1.36,1.12,2.2,1.48
			c0.84,0.35,1.74,0.529,2.71,0.529c0.93,0,1.81-0.18,2.649-0.529c0.841-0.36,1.57-0.851,2.2-1.48c0.63-0.64,1.13-1.359,1.48-2.18
			c0.35-0.82,0.53-1.71,0.53-2.68v-38.9c0-0.93-0.181-1.81-0.53-2.65C644.407,154.425,643.928,153.695,643.338,153.065z"/>
		<path fill="#FFFFFF" d="M633.067,144.245c0.67,0.67,1.46,1.2,2.37,1.59s1.87,0.58,2.87,0.58c1.01,0,1.97-0.19,2.88-0.58
			s1.71-0.92,2.4-1.59c0.689-0.67,1.229-1.46,1.62-2.37c0.39-0.92,0.58-1.87,0.58-2.88c0-1.04-0.19-2.01-0.58-2.9
			c-0.391-0.89-0.931-1.68-1.62-2.34c-0.69-0.67-1.49-1.21-2.4-1.6c-0.91-0.391-1.87-0.58-2.88-0.58c-1,0-1.96,0.189-2.87,0.58
			c-0.91,0.39-1.7,0.93-2.37,1.6c-0.67,0.66-1.2,1.45-1.59,2.34c-0.39,0.891-0.59,1.86-0.59,2.9c0,1.01,0.2,1.96,0.59,2.88
			C631.867,142.785,632.397,143.575,633.067,144.245z"/>
		<path fill="#FFFFFF" d="M655.388,188.055c1.42,3.24,3.33,6.051,5.75,8.45c2.42,2.4,5.24,4.3,8.46,5.7
			c3.22,1.39,6.65,2.09,10.29,2.09c2.46,0,4.81-0.39,7.06-1.17c2.261-0.78,4.391-1.84,6.4-3.18c0.52,1.109,1.3,2.01,2.34,2.699
			c1.04,0.69,2.271,1.04,3.68,1.04c1.011,0,1.94-0.189,2.79-0.56c0.86-0.37,1.601-0.88,2.24-1.51c0.63-0.63,1.13-1.38,1.5-2.26
			c0.37-0.87,0.561-1.79,0.561-2.761v-19.26c-0.03-1.35-0.15-2.68-0.36-3.97c-0.37-2.16-0.99-4.24-1.87-6.24
			c-1.42-3.2-3.32-5.98-5.72-8.34c-2.4-2.37-5.2-4.24-8.4-5.61c-3.2-1.38-6.609-2.069-10.22-2.069c-3.64,0-7.07,0.699-10.29,2.1
			c-3.22,1.39-6.04,3.3-8.46,5.72c-2.42,2.41-4.33,5.23-5.75,8.45c-0.84,1.91-1.43,3.91-1.76,5.99c-0.24,1.41-0.36,2.87-0.36,4.359
			c0,0.551,0.021,1.101,0.05,1.641C653.498,182.415,654.188,185.305,655.388,188.055z M667.878,173.365
			c0.069-0.2,0.149-0.4,0.239-0.59c0.671-1.521,1.591-2.87,2.74-4.021c1.16-1.16,2.51-2.06,4.061-2.72
			c1.54-0.65,3.189-0.98,4.949-0.98c1.79,0,3.46,0.33,5,0.98c1.551,0.66,2.891,1.56,4.03,2.72c1.141,1.15,2.04,2.5,2.71,4.021
			c0.09,0.189,0.17,0.39,0.24,0.59c0.51,1.359,0.77,2.83,0.77,4.39c0,0.55-0.029,1.08-0.1,1.61c-0.14,1.16-0.45,2.279-0.91,3.34
			c-0.67,1.55-1.569,2.9-2.71,4.06c-1.14,1.15-2.479,2.061-4.03,2.71c-1.54,0.65-3.21,0.98-5,0.98c-1.76,0-3.409-0.33-4.949-0.98
			c-1.551-0.649-2.9-1.56-4.061-2.71c-1.149-1.159-2.069-2.51-2.74-4.06c-0.46-1.061-0.77-2.18-0.909-3.34
			c-0.07-0.53-0.101-1.061-0.101-1.61C667.107,176.195,667.367,174.725,667.878,173.365z"/>
		<path fill="#FFFFFF" d="M719.688,201.675c0.63,0.63,1.36,1.12,2.2,1.48c0.84,0.35,1.74,0.529,2.71,0.529
			c0.93,0,1.81-0.18,2.65-0.529c0.84-0.36,1.569-0.851,2.199-1.48c0.63-0.64,1.13-1.359,1.48-2.18c0.35-0.82,0.53-1.71,0.53-2.68
			v-17.75c0-1.931,0.359-3.75,1.09-5.471c0.029-0.08,0.069-0.16,0.109-0.229c0.71-1.62,1.67-3.04,2.881-4.26
			c1.26-1.28,2.729-2.311,4.399-3.07c1.68-0.76,3.46-1.16,5.36-1.2h0.279c1.011,0,1.95-0.17,2.82-0.5
			c0.87-0.34,1.641-0.81,2.29-1.42c0.65-0.62,1.16-1.34,1.53-2.18c0.37-0.841,0.56-1.761,0.56-2.761c0-2.01-0.63-3.659-1.899-4.939
			c-1.261-1.29-3.03-1.93-5.301-1.93h-0.39c-2.6,0.039-5.11,0.409-7.5,1.119c-2.41,0.71-4.649,1.71-6.729,3.011
			c-0.521-1.23-1.341-2.23-2.46-3.011c-1.11-0.779-2.381-1.17-3.79-1.17c-0.971,0-1.891,0.17-2.761,0.53
			c-0.88,0.35-1.63,0.84-2.26,1.48c-0.64,0.63-1.14,1.359-1.51,2.199c-0.37,0.841-0.561,1.721-0.561,2.65v38.9
			c0,0.97,0.19,1.859,0.561,2.68S719.048,201.035,719.688,201.675z"/>
		<path fill="#FFFFFF" d="M863,173.37h-64.54l5.78-12.45c0.41-0.88,0.62-1.79,0.64-2.7c0.021-0.899-0.13-1.79-0.45-2.63
			c-0.31-0.83-0.79-1.59-1.42-2.26c-0.63-0.66-1.399-1.2-2.29-1.61c-0.89-0.38-1.79-0.56-2.7-0.59c-0.92-0.01-1.779,0.13-2.6,0.45
			c-0.82,0.31-1.56,0.8-2.229,1.42c-0.671,0.63-1.19,1.38-1.57,2.24l-8.2,18.13l-2.71,6l-0.75,1.66l-0.75-1.66l-2.7-6l-8.16-18.13
			c-0.409-0.9-0.939-1.65-1.59-2.271c-0.649-0.6-1.39-1.09-2.2-1.42c-0.819-0.34-1.689-0.479-2.6-0.47s-1.81,0.21-2.71,0.59
			c-0.85,0.41-1.6,0.95-2.23,1.62c-0.63,0.67-1.109,1.42-1.42,2.25c-0.319,0.84-0.47,1.71-0.449,2.63
			c0.02,0.91,0.229,1.82,0.64,2.71l5.78,12.49l2.77,6l8.25,17.84l-7.479,16.58c-0.851,1.85-1.051,3.63-0.58,5.29
			c0.46,1.67,1.59,2.92,3.37,3.75c0.859,0.41,1.739,0.62,2.659,0.63c0.91,0.03,1.78-0.13,2.62-0.46c0.84-0.34,1.601-0.82,2.29-1.43
			c0.69-0.61,1.23-1.36,1.641-2.271l18.56-39.93H863c4.88,0,9,2.67,9,5.84v114.67c0,3.16-4.12,5.83-9,5.83h-42.83
			c-0.03-0.93-0.11-1.84-0.2-2.75c-1.109,1.11-2.25,2.19-3.42,3.22c-1.33,1.19-2.7,2.33-4.1,3.41c-1.16,0.9-2.34,1.76-3.54,2.59
			c-4.141,2.87-8.54,5.33-13.19,7.37c2.24,9.181,6.221,17.69,11.57,25.141c7.4-8.94,12.1-20.19,12.86-32.511
			c0.01-0.16,0.02-0.31,0.02-0.47H863c8.27,0,15-5.3,15-11.83V185.21C878,178.67,871.27,173.37,863,173.37z"/>
		<path fill="#FFFFFF" d="M789.424,322.004h-0.004c-7.211,2.469-14.707,3.869-22.387,4.184v38.928
			c13.758-0.8,26.195-6.519,35.578-15.426c-3.77-5.07-6.914-10.565-9.395-16.43C791.666,329.588,790.398,325.831,789.424,322.004z"
			/>
		<path fill="#FFFFFF" d="M734.914,329.919c-2.863,6.774-6.613,13.053-11.188,18.753c9.496,9.488,22.352,15.614,36.627,16.443
			v-38.928c-7.74-0.316-15.295-1.737-22.559-4.241C736.982,324.643,736.02,327.304,734.914,329.919z"/>
		<path fill="#FFFFFF" d="M767.032,319.5c7.33-0.33,14.38-1.75,21-4.101c-0.18-1.069-0.33-2.14-0.47-3.22
			c-0.24-1.979-0.41-3.99-0.5-6c-0.07-1.3-0.101-2.6-0.101-3.91c0-10.739,2.101-21.17,6.25-30.979c1.19-2.811,2.53-5.54,4.021-8.17
			c-8.54-6.311-18.93-10.271-30.2-10.92V319.5z"/>
		<path fill="#FFFFFF" d="M740.072,312.18c-0.18,1.09-0.38,2.18-0.61,3.26c6.58,2.32,13.601,3.73,20.891,4.061v-67.3
			c-10.471,0.609-20.17,4.069-28.351,9.609c1.051,1.99,2.03,4.04,2.91,6.141c4.15,9.81,6.26,20.239,6.26,30.979
			c0,2.44-0.109,4.851-0.33,7.25C740.672,308.189,740.412,310.189,740.072,312.18z"/>
		<path fill="#FFFFFF" d="M794.31,312.18c0.03,0.2,0.061,0.41,0.091,0.61c0.42-0.2,0.84-0.4,1.26-0.61
			c3.54-1.72,6.92-3.729,10.109-6c4.681-3.319,8.961-7.18,12.74-11.489c-2.68-10.561-8.34-19.94-16.029-27.19
			c-5.641,10.34-8.841,22.19-8.841,34.77c0,1.311,0.03,2.62,0.11,3.91C793.85,308.2,794.04,310.21,794.31,312.18z"/>
		<path fill="#FFFFFF" d="M718.48,312.18c-2.66-1.83-5.2-3.83-7.62-6c-1.17-1.029-2.311-2.109-3.431-3.22
			c-0.09,0.91-0.17,1.82-0.199,2.75h-52.15c-3.09-4.33-12.8-8.02-26.22-10.31c9.609-13.57,13.83-24.71,9.899-28.65
			c-0.359-0.36-0.779-0.65-1.26-0.88c-4.74-2.24-15.05,2.04-27.39,10.77c-2.801-16.39-7.69-27.25-13.261-27.25
			c-5.56,0-10.449,10.86-13.26,27.25c-13.57-9.6-24.71-13.83-28.64-9.89c-3.94,3.94,0.28,15.08,9.89,28.65
			c-11.06,1.89-19.6,4.729-23.99,8.09c-0.939,0.72-1.68,1.46-2.22,2.22h-53.02v-21.68c0-6.61-5.42-12.03-12.021-12.03h-30.72
			c0-9.41-7.641-17.07-17.02-17.07c-1.541,0-3.021,0.2-4.431,0.61c-0.63,0.16-1.22,0.36-1.81,0.59
			c-6.33,2.48-10.83,8.65-10.83,15.87h-30.711c-6.609,0-12.029,5.42-12.029,12.03v21.68h-67.48v-56.47h-89.879v17.72h-4.94v11.91
			h4.94v23.83h-4.94v3.01H161c-4.88,0-9-2.67-9-5.83V185.21c0-3.17,4.12-5.84,9-5.84h65.16l-6.36,14.59
			c-0.41,0.91-0.64,1.8-0.67,2.71c-0.04,0.91,0.08,1.79,0.36,2.61c0.28,0.81,0.72,1.55,1.31,2.22c0.6,0.67,1.34,1.2,2.23,1.57
			c0.9,0.359,1.82,0.56,2.77,0.59c0.95,0.01,1.85-0.12,2.7-0.42c0.86-0.311,1.62-0.771,2.29-1.41c0.67-0.62,1.189-1.38,1.561-2.28
			l5.75-14.12h25.729l5.92,14.12c0.41,0.9,0.95,1.66,1.64,2.28c0.69,0.64,1.45,1.1,2.291,1.41c0.84,0.3,1.709,0.439,2.629,0.439
			c0.91,0,1.811-0.21,2.7-0.609c0.89-0.41,1.63-0.95,2.21-1.62c0.57-0.67,0.99-1.41,1.25-2.2c0.26-0.8,0.36-1.67,0.311-2.58
			c-0.061-0.91-0.271-1.8-0.641-2.71l-6.27-14.59l-2.58-6l-15.88-36.99c-0.56-1.3-1.39-2.33-2.511-3.05
			c-1.109-0.72-2.34-1.08-3.68-1.08c-1.449,0-2.729,0.37-3.83,1.11c-1.09,0.75-1.939,1.76-2.529,3.06l-16.09,36.95H161
			c-8.41,0-15,5.2-15,11.84v114.67c0,6.63,6.59,11.83,15,11.83h42.74v2.91h4.94v23.83h-4.94v11.91h4.94v17.72h89.879v-56.37h67.48
			v38.65c0,2.909,1.061,5.59,2.79,7.68c0.45,0.53,0.93,1.02,1.45,1.45c2.1,1.8,4.83,2.89,7.789,2.89h95.521
			c6.601,0,12.021-5.399,12.021-12.02v-38.65h53.1c0.11,0.16,0.24,0.31,0.37,0.47c0.07,0.09,0.15,0.181,0.229,0.271
			c0.12,0.12,0.24,0.25,0.37,0.359c3.891,3.801,13.011,7.03,25.16,9.11c-9.609,13.57-13.83,24.7-9.89,28.64
			c3.93,3.94,15.069-0.279,28.64-9.89c2.811,16.39,7.7,27.25,13.26,27.25c5.57,0,10.46-10.86,13.261-27.25
			c13.569,9.61,24.71,13.83,28.649,9.89c3.931-3.939-0.29-15.069-9.899-28.64c12.83-2.189,22.27-5.67,25.779-9.74
			c0.13-0.149,0.261-0.31,0.37-0.47h52.221c0,0.16,0.01,0.31,0.02,0.47c0.73,11.811,5.08,22.641,11.95,31.391
			c5.52-7.101,9.75-15.24,12.35-24.07C726.95,317.47,722.58,315.02,718.48,312.18z M250.83,154.34l7.2,17.24H243.8L250.83,154.34z
			 M252.601,340.44c-6.931,0-13.33-2.21-18.551-5.98c-4.31-3.1-7.82-7.26-10.13-12.1c-1.989-4.15-3.101-8.79-3.101-13.7
			c0-17.55,14.23-31.78,31.781-31.78c11.42,0,21.439,6.021,27.029,15.07c0.23,0.359,0.45,0.729,0.66,1.109
			c0.01,0.011,0.01,0.011,0.01,0.021c2.6,4.6,4.08,9.92,4.08,15.58C284.38,326.21,270.149,340.44,252.601,340.44z M417.05,272
			c0-4.85,3.94-8.79,8.801-8.79c3.239,0,6.08,1.8,7.59,4.44c0.74,1.3,1.16,2.779,1.16,4.35H417.05z M614.51,312.18
			c-1.64,8.25-8.92,14.48-17.66,14.48c-8.739,0-16.02-6.23-17.649-14.48c-0.23-1.14-0.351-2.319-0.351-3.52
			c0-0.84,0.061-1.67,0.17-2.48c1.211-8.77,8.73-15.529,17.83-15.529c9.11,0,16.631,6.76,17.83,15.529
			c0.11,0.811,0.17,1.641,0.17,2.48C614.85,309.86,614.73,311.04,614.51,312.18z"/>
		<path fill="#FFFFFF" d="M721.612,306.18c3.18,2.26,6.56,4.271,10.09,6c0.48,0.23,0.96,0.46,1.45,0.69
			c0.04-0.23,0.09-0.46,0.13-0.69c0.37-1.97,0.65-3.97,0.85-6c0.24-2.39,0.36-4.8,0.36-7.25c0-11.85-2.85-23.06-7.89-32.97
			c-8.561,7.439-14.851,17.399-17.73,28.729C712.652,299,716.933,302.859,721.612,306.18z"/>
		<path fill="#FFFFFF" d="M252.599,285.23c-12.914,0-23.423,10.509-23.423,23.428s10.509,23.428,23.423,23.428
			s23.423-10.509,23.423-23.428S265.513,285.23,252.599,285.23z M270.047,316.283h-21.135v-21.131h7.196v13.939h13.938V316.283z"/>
	</g>
</g>
<g id="Layer_2">
</g>
</svg>
