<?xml version="1.0" encoding="utf-8"?>
<!-- Generator: Adobe Illustrator 15.1.0, SVG Export Plug-In . SVG Version: 6.00 Build 0)  -->
<!DOCTYPE svg PUBLIC "-//W3C//DTD SVG 1.1//EN" "http://www.w3.org/Graphics/SVG/1.1/DTD/svg11.dtd">
<svg version="1.1" xmlns="http://www.w3.org/2000/svg" xmlns:xlink="http://www.w3.org/1999/xlink" x="0px" y="0px" width="1000px"
	 height="1000px" viewBox="0 0 1000 1000" enable-background="new 0 0 1000 1000" xml:space="preserve">
<g id="Layer_1">
	<g>
		<path fill="#FF6600" d="M1000,71.476V928.53c0,39.4-32.063,71.465-71.479,71.465H71.481c-39.416,0-71.479-32.064-71.479-71.465
			V71.476C0.002,32.063,32.065,0,71.481,0h857.041C967.938,0,1000,32.063,1000,71.476z"/>
		<path opacity="0.3" fill="#F4F3F2" d="M928.519,0.004H71.479C32.063,0.004,0,32.068,0,71.48v12.564
			c0-39.413,32.063-71.477,71.479-71.477h857.04c39.416,0,71.479,32.064,71.479,71.477V71.48
			C999.998,32.068,967.935,0.004,928.519,0.004z"/>
		<path fill="#F2570A" d="M794.834,227.773l-0.064-0.076l-1.84-1.835c-0.72-0.59-1.515-1.081-2.396-1.496
			c-0.077-0.036-0.152-0.074-0.239-0.099c-12.815-5.754-40.35,5.691-73.233,28.884c-7.53-43.811-20.634-72.821-35.581-72.821
			c-14.922,0-28.052,29.01-35.558,72.821c-36.413-25.68-66.308-36.963-76.852-26.435c-10.569,10.516,0.757,40.281,26.538,76.54
			c-13.067,2.225-24.835,4.951-34.9,8.068c-1.69,0.527-3.342,1.055-4.932,1.595l-119.9-134.423H192.63v47.769h-13.37v32.113h13.37
			v64.253h-13.37v32.125h13.37v64.24h-13.37v32.126h13.37v47.755l77.496,89.596h-79.501c-17.09,0-31.104,13.958-31.104,31.02
			v171.021c0,7.5,2.712,14.398,7.215,19.776c0.113,0.138,0.227,0.275,0.353,0.401c0.517,0.615,1.061,1.193,1.627,1.759l0.077,0.076
			l188.201,187.468h571.528c39.416,0,71.479-32.064,71.479-71.465V432.139L794.834,227.773z"/>
		<path fill="#FFFFFF" d="M437.869,588.474H358.38c0-24.262-19.802-44-44.108-44c-3.948,0-7.782,0.516-11.453,1.559
			c-1.589,0.414-3.153,0.93-4.667,1.52c-16.422,6.383-28.026,22.313-28.026,40.922h-79.501c-17.09,0-31.104,13.958-31.104,31.02
			v171.021c0,7.5,2.712,14.398,7.215,19.776c0.113,0.138,0.227,0.275,0.353,0.401c0.517,0.615,1.061,1.193,1.627,1.759l0.077,0.076
			c0.542,0.527,1.109,1.043,1.69,1.532c5.436,4.636,12.487,7.45,20.143,7.45h247.244c17.103,0,31.117-13.945,31.117-30.995V619.493
			C468.986,602.432,454.972,588.474,437.869,588.474z M291.518,588.474c0-12.502,10.204-22.666,22.754-22.666
			c8.413,0,15.779,4.623,19.676,11.445c1.906,3.342,3.003,7.162,3.003,11.221H291.518z"/>
		<g>
			<path fill="#FFFFFF" d="M777.986,782.374c-23.266,21.776-54.104,35.76-88.214,37.714v-95.174
				c19.043-0.768,37.628-4.192,55.508-10.229h0.008c2.419,9.357,5.56,18.542,9.405,27.52
				C760.845,756.544,768.64,769.978,777.986,782.374z"/>
			<path fill="#FFFFFF" d="M673.211,724.914v95.174c-35.394-2.029-67.262-17.006-90.808-40.201
				c11.339-13.937,20.637-29.289,27.736-45.85c2.742-6.396,5.127-12.9,7.142-19.493C635.287,720.668,654.02,724.142,673.211,724.914
				z"/>
			<path fill="#FFFFFF" d="M754.693,590.693c-10.29,23.999-15.513,49.488-15.513,75.754c0,10.846,0.89,21.56,2.661,32.087
				c-16.405,5.749-33.891,9.22-52.069,10.025V544.022c27.951,1.601,53.697,11.281,74.889,26.702
				C760.961,577.158,757.638,583.821,754.693,590.693z"/>
			<path fill="#FFFFFF" d="M673.211,544.022V708.56c-18.08-0.799-35.468-4.237-51.801-9.926c2.823-13.171,4.242-26.655,4.242-40.352
				c0-26.267-5.218-51.756-15.513-75.755c-2.197-5.124-4.604-10.132-7.211-15.015C623.201,553.964,647.255,545.51,673.211,544.022z"
				/>
			<path fill="#FFFFFF" d="M821.713,682.056c0,33.479-12.065,64.183-32.148,88.102c-13.273-18.229-23.145-39.021-28.692-61.462
				c22.462-9.732,42.681-23.373,60.137-40.575C821.477,672.702,821.713,677.351,821.713,682.056z"/>
			<path fill="#FFFFFF" d="M817.402,647.911c-16.501,18.552-36.837,33.708-59.782,44.254c-1.236-8.4-1.877-16.985-1.877-25.718
				c0-30.763,7.942-59.735,21.918-85.014C796.729,599.15,810.756,622.081,817.402,647.911z"/>
			<path fill="#FFFFFF" d="M601.773,708.552c-6.446,21.593-16.937,41.496-30.604,58.855c-18.73-23.498-29.9-53.142-29.9-85.352
				c0-4.705,0.239-9.354,0.707-13.936C559.345,685.234,579.449,698.827,601.773,708.552z"/>
			<path fill="#FFFFFF" d="M609.09,658.282c0,11.645-1.138,23.039-3.311,34.067c-23.11-10.544-43.597-25.775-60.198-44.438
				c7.127-27.698,22.74-52.057,43.949-70.241C602.032,601.896,609.09,629.294,609.09,658.282z"/>
		</g>
		<path fill="#FFFFFF" d="M840.468,338.699c0-14.875-29.123-27.955-73.105-35.443c24.974-35.115,36.364-64.139,27.472-75.483
			l-0.064-0.076c-0.263-0.353-0.566-0.679-0.869-0.98c-0.315-0.314-0.631-0.603-0.971-0.854c-0.72-0.59-1.515-1.081-2.396-1.496
			c-0.077-0.036-0.152-0.074-0.239-0.099c-12.815-5.754-40.35,5.691-73.233,28.884c-7.53-43.811-20.634-72.821-35.581-72.821
			c-14.922,0-28.052,29.01-35.558,72.821c-36.413-25.68-66.308-36.963-76.852-26.435c-10.569,10.516,0.757,40.281,26.538,76.54
			c-13.067,2.225-24.835,4.951-34.9,8.068c-1.69,0.527-3.342,1.055-4.932,1.595c-10.469,3.58-18.807,7.613-24.521,11.974
			c-5.676,4.335-8.753,8.97-8.753,13.807c0,3.481,1.602,6.874,4.616,10.115c0.315,0.327,0.644,0.665,0.983,0.979
			c10.458,10.166,34.914,18.784,67.506,24.337c-25.781,36.26-37.107,66.024-26.538,76.541c10.544,10.527,40.426-0.754,76.852-26.436
			c7.506,43.799,20.636,72.821,35.558,72.821c14.947,0,28.051-29.022,35.569-72.821c36.413,25.682,66.294,36.963,76.852,26.436
			c10.558-10.517-0.756-40.28-26.551-76.541C811.332,366.642,840.468,353.563,840.468,338.699z M681.479,386.807
			c-26.664,0-48.296-21.546-48.296-48.108c0-26.584,21.632-48.12,48.296-48.12c26.688,0,48.296,21.536,48.296,48.12
			C729.775,365.261,708.168,386.807,681.479,386.807z"/>
		<g>
			<path fill="#FFFFFF" d="M192.63,178.496v47.769h-13.37v32.113h13.37v64.253h-13.37v32.125h13.37v64.24h-13.37v32.126h13.37
				v47.755h243.246V178.496H192.63z M311.485,424.374c-18.744,0-36.073-5.968-50.2-16.119
				c-11.679-8.354-21.165-19.587-27.421-32.629c-5.373-11.195-8.388-23.708-8.388-36.939c0-47.316,38.508-85.673,86.01-85.673
				c30.915,0,58.021,16.232,73.168,40.619c0.619,0.993,1.211,1.986,1.779,3.002c0.026,0.025,0.038,0.038,0.038,0.063
				c7.025,12.401,11.024,26.736,11.024,41.988C397.495,386.003,358.986,424.374,311.485,424.374z"/>
			<path fill="#FFFFFF" d="M311.485,275.528c-34.951,0-63.394,28.332-63.394,63.159c0,34.829,28.442,63.16,63.394,63.16
				s63.394-28.331,63.394-63.16C374.878,303.86,346.436,275.528,311.485,275.528z M301.508,359.243v-56.965h19.475v37.579h37.726
				v19.386H301.508z"/>
		</g>
		<path opacity="0.25" fill="#FF6600" d="M928.519,1000H71.479C32.063,1000,0,967.936,0,928.523V915.96
			c0,39.412,32.063,71.476,71.479,71.476h857.04c39.416,0,71.479-32.063,71.479-71.476v12.563
			C999.998,967.936,967.935,1000,928.519,1000z"/>
	</g>
</g>
<g id="Layer_2">
</g>
</svg>
