<?xml version="1.0" encoding="utf-8"?>
<!-- Generator: Adobe Illustrator 15.1.0, SVG Export Plug-In . SVG Version: 6.00 Build 0)  -->
<!DOCTYPE svg PUBLIC "-//W3C//DTD SVG 1.1//EN" "http://www.w3.org/Graphics/SVG/1.1/DTD/svg11.dtd">
<svg version="1.1" xmlns="http://www.w3.org/2000/svg" xmlns:xlink="http://www.w3.org/1999/xlink" x="0px" y="0px"
	 width="574.705px" height="500px" viewBox="0 0 574.705 500" enable-background="new 0 0 574.705 500" xml:space="preserve">
<g id="Layer_1">
	<g>
		<g>
			<path fill="#FF6600" d="M467.353,25.731v308.54c0,14.184-11.543,25.727-25.733,25.727H133.086
				c-14.19,0-25.732-11.543-25.732-25.727V25.731C107.354,11.542,118.896,0,133.086,0h308.533
				C455.81,0,467.353,11.542,467.353,25.731z"/>
			<path opacity="0.3" fill="#F4F3F2" d="M441.619,0.001H133.086c-14.19,0-25.733,11.543-25.733,25.731v4.523
				c0-14.188,11.543-25.731,25.733-25.731h308.533c14.189,0,25.732,11.543,25.732,25.731v-4.523
				C467.352,11.544,455.809,0.001,441.619,0.001z"/>
			<path fill="#F2570A" d="M393.492,81.998l-0.023-0.027l-0.661-0.66c-0.26-0.213-0.547-0.39-0.864-0.539
				c-0.027-0.013-0.054-0.026-0.085-0.035c-4.614-2.072-14.526,2.049-26.363,10.398c-2.712-15.772-7.43-26.216-12.81-26.216
				c-5.373,0-10.1,10.443-12.801,26.216c-13.109-9.245-23.871-13.308-27.667-9.517c-3.805,3.785,0.272,14.501,9.554,27.554
				c-4.704,0.801-8.94,1.782-12.564,2.904c-0.608,0.19-1.203,0.38-1.775,0.574l-43.163-48.392H176.7v17.196h-4.813v11.561h4.813
				v23.132h-4.813v11.564h4.813v23.127h-4.813v11.564h4.813v17.192l27.898,32.256h-28.621c-6.152,0-11.197,5.023-11.197,11.166
				v61.568c0,2.699,0.977,5.184,2.597,7.119c0.042,0.049,0.083,0.1,0.128,0.145c0.187,0.221,0.381,0.43,0.585,0.633l0.027,0.027
				l67.754,67.488h205.748c14.19,0,25.733-11.543,25.733-25.727V155.569L393.492,81.998z"/>
			<path fill="#FFFFFF" d="M264.985,211.852H236.37c0-8.734-7.129-15.842-15.88-15.842c-1.421,0-2.802,0.186-4.123,0.563
				c-0.571,0.148-1.135,0.334-1.68,0.547c-5.911,2.297-10.089,8.033-10.089,14.732h-28.621c-6.152,0-11.197,5.023-11.197,11.166
				v61.568c0,2.699,0.977,5.184,2.597,7.119c0.042,0.049,0.083,0.1,0.128,0.145c0.187,0.221,0.381,0.43,0.585,0.633l0.027,0.027
				c0.195,0.189,0.4,0.375,0.609,0.553c1.957,1.668,4.495,2.682,7.251,2.682h89.008c6.157,0,11.201-5.021,11.201-11.158v-61.568
				C276.187,216.875,271.143,211.852,264.985,211.852z M212.3,211.852c0-4.502,3.673-8.16,8.19-8.16
				c3.028,0,5.681,1.664,7.084,4.119c0.686,1.203,1.081,2.578,1.081,4.041H212.3z"/>
			<g>
				<path fill="#FFFFFF" d="M387.428,281.654c-8.376,7.84-19.478,12.875-31.757,13.578v-34.264
					c6.855-0.275,13.546-1.508,19.982-3.682h0.002c0.872,3.369,2.002,6.676,3.387,9.906
					C381.257,272.355,384.063,277.191,387.428,281.654z"/>
				<path fill="#FFFFFF" d="M349.709,260.969v34.264c-12.742-0.73-24.215-6.123-32.691-14.473
					c4.082-5.018,7.429-10.545,9.985-16.506c0.986-2.303,1.846-4.645,2.57-7.018C336.056,259.441,342.799,260.691,349.709,260.969z"
					/>
				<path fill="#FFFFFF" d="M379.042,212.65c-3.704,8.639-5.585,17.814-5.585,27.271c0,3.904,0.32,7.76,0.958,11.551
					c-5.905,2.07-12.2,3.318-18.744,3.609v-59.234c10.063,0.576,19.331,4.063,26.959,9.613
					C381.299,207.777,380.102,210.176,379.042,212.65z"/>
				<path fill="#FFFFFF" d="M349.709,195.848v59.234c-6.51-0.287-12.769-1.525-18.649-3.574c1.017-4.74,1.527-9.596,1.527-14.525
					c0-9.457-1.878-18.633-5.584-27.271c-0.791-1.846-1.657-3.648-2.596-5.406C331.705,199.428,340.363,196.383,349.709,195.848z"/>
				<path fill="#FFFFFF" d="M403.169,245.541c0,12.051-4.343,23.105-11.573,31.715c-4.778-6.561-8.332-14.047-10.329-22.125
					c8.086-3.504,15.365-8.414,21.649-14.607C403.084,242.174,403.169,243.848,403.169,245.541z"/>
				<path fill="#FFFFFF" d="M401.617,233.248c-5.94,6.68-13.262,12.135-21.521,15.932c-0.445-3.023-0.676-6.115-0.676-9.258
					c0-11.074,2.859-21.506,7.891-30.605C394.175,215.695,399.224,223.949,401.617,233.248z"/>
				<path fill="#FFFFFF" d="M323.991,255.078c-2.321,7.773-6.098,14.939-11.018,21.189c-6.743-8.461-10.765-19.131-10.765-30.727
					c0-1.693,0.087-3.367,0.255-5.018C308.717,246.686,315.954,251.578,323.991,255.078z"/>
				<path fill="#FFFFFF" d="M326.625,236.982c0,4.191-0.41,8.293-1.192,12.264c-8.319-3.797-15.694-9.279-21.671-15.998
					c2.565-9.971,8.187-18.74,15.822-25.287C324.083,216.684,326.625,226.547,326.625,236.982z"/>
			</g>
			<path fill="#FFFFFF" d="M409.921,121.931c0-5.354-10.484-10.063-26.318-12.759c8.991-12.642,13.091-23.09,9.89-27.174
				l-0.023-0.027c-0.094-0.127-0.204-0.244-0.313-0.353c-0.112-0.113-0.227-0.217-0.349-0.308c-0.26-0.213-0.547-0.39-0.864-0.539
				c-0.027-0.013-0.054-0.026-0.085-0.035c-4.614-2.072-14.526,2.049-26.363,10.398c-2.712-15.772-7.43-26.216-12.81-26.216
				c-5.373,0-10.1,10.443-12.801,26.216c-13.109-9.245-23.871-13.308-27.667-9.517c-3.805,3.785,0.272,14.501,9.554,27.554
				c-4.704,0.801-8.94,1.782-12.564,2.904c-0.608,0.19-1.203,0.38-1.775,0.574c-3.769,1.288-6.77,2.741-8.827,4.311
				c-2.043,1.561-3.151,3.229-3.151,4.97c0,1.254,0.577,2.475,1.662,3.643c0.113,0.117,0.231,0.238,0.354,0.352
				c3.765,3.66,12.569,6.763,24.303,8.762c-9.281,13.054-13.358,23.769-9.554,27.555c3.796,3.79,14.553-0.271,27.667-9.518
				c2.701,15.768,7.428,26.217,12.801,26.217c5.38,0,10.098-10.449,12.805-26.217c13.108,9.246,23.865,13.308,27.666,9.518
				c3.801-3.786-0.271-14.501-9.558-27.555C399.432,131.991,409.921,127.282,409.921,121.931z M352.686,139.25
				c-9.6,0-17.387-7.757-17.387-17.319c0-9.57,7.787-17.322,17.387-17.322c9.607,0,17.386,7.752,17.386,17.322
				C370.071,131.493,362.293,139.25,352.686,139.25z"/>
			<g>
				<path fill="#FFFFFF" d="M176.7,64.259v17.196h-4.813v11.561h4.813v23.132h-4.813v11.564h4.813v23.127h-4.813v11.564h4.813
					v17.192h87.568V64.259H176.7z M219.486,152.774c-6.747,0-12.986-2.148-18.071-5.803c-4.205-3.008-7.619-7.052-9.871-11.746
					c-1.935-4.031-3.02-8.535-3.02-13.299c0-17.033,13.862-30.842,30.962-30.842c11.13,0,20.889,5.844,26.341,14.623
					c0.224,0.357,0.437,0.715,0.642,1.081c0.009,0.009,0.014,0.014,0.014,0.022c2.528,4.464,3.969,9.625,3.969,15.115
					C250.451,138.961,236.587,152.774,219.486,152.774z"/>
				<path fill="#FFFFFF" d="M219.486,99.19c-12.582,0-22.821,10.199-22.821,22.736c0,12.539,10.239,22.738,22.821,22.738
					c12.583,0,22.822-10.199,22.822-22.738C242.309,109.39,232.069,99.19,219.486,99.19z M215.896,129.327v-20.508h7.011v13.529
					h13.582v6.979H215.896z"/>
			</g>
			<path opacity="0.25" fill="#FF6600" d="M441.619,360H133.086c-14.19,0-25.733-11.543-25.733-25.73v-4.523
				c0,14.188,11.543,25.73,25.733,25.73h308.533c14.189,0,25.732-11.543,25.732-25.73v4.523
				C467.352,348.457,455.809,360,441.619,360z"/>
		</g>
		<g>
			<path fill="#333333" d="M43.866,462.681H18.623l-5.639,13.853c-0.367,0.876-0.876,1.625-1.535,2.244
				c-0.656,0.622-1.405,1.078-2.245,1.37c-0.839,0.292-1.724,0.431-2.654,0.408c-0.932-0.015-1.836-0.208-2.712-0.571
				c-0.874-0.366-1.605-0.877-2.189-1.534s-1.013-1.387-1.286-2.189c-0.274-0.804-0.393-1.651-0.355-2.548
				c0.036-0.893,0.255-1.779,0.655-2.655l24.586-56.454c0.586-1.276,1.415-2.281,2.493-3.012c1.076-0.729,2.326-1.097,3.75-1.097
				c1.314,0,2.518,0.359,3.614,1.067c1.095,0.713,1.917,1.71,2.463,2.986l24.259,56.509c0.365,0.876,0.574,1.763,0.629,2.655
				c0.056,0.896-0.045,1.735-0.302,2.52c-0.256,0.786-0.664,1.507-1.231,2.163c-0.566,0.657-1.285,1.187-2.161,1.589
				c-0.878,0.4-1.763,0.602-2.657,0.602c-0.896,0-1.752-0.146-2.572-0.438c-0.823-0.292-1.571-0.748-2.245-1.37
				c-0.678-0.619-1.215-1.368-1.617-2.244L43.866,462.681z M24.21,449.101h13.961l-7.063-16.922L24.21,449.101z"/>
			<path fill="#333333" d="M85.674,443.898c-1.407,0.731-2.62,1.681-3.642,2.847c-1.022,1.167-1.827,2.485-2.411,3.942
				c-0.583,1.46-0.875,2.938-0.875,4.436c0,1.46,0.292,2.91,0.875,4.355c0.584,1.441,1.389,2.736,2.411,3.887
				c1.021,1.149,2.234,2.101,3.642,2.847c1.404,0.751,2.927,1.14,4.57,1.176c1.535,0.073,2.994-0.062,4.382-0.41
				c1.387-0.345,2.848-1.103,4.381-2.271c0.692-0.547,1.434-1.078,2.218-1.588c0.784-0.513,1.634-0.866,2.545-1.068
				c0.911-0.198,1.872-0.19,2.877,0.026c1.003,0.221,2.051,0.803,3.147,1.754c0.73,0.656,1.268,1.405,1.615,2.245
				c0.347,0.839,0.511,1.724,0.492,2.656c-0.019,0.93-0.229,1.86-0.629,2.792c-0.402,0.931-1.005,1.801-1.808,2.602
				c-2.298,2.302-5.01,4.05-8.13,5.257c-3.122,1.204-6.4,1.809-9.829,1.809c-3.688,0-7.146-0.669-10.378-2.001
				c-3.232-1.333-6.051-3.157-8.459-5.477c-2.409-2.314-4.317-5.055-5.724-8.212c-1.405-3.159-2.105-6.58-2.105-10.267
				c0-3.65,0.7-7.082,2.105-10.296c1.406-3.211,3.314-6.006,5.724-8.377c2.408-2.373,5.227-4.244,8.459-5.61
				c3.232-1.37,6.689-2.055,10.378-2.055c3.466,0,6.752,0.601,9.855,1.804c3.103,1.205,5.806,2.959,8.104,5.261
				c0.803,0.799,1.405,1.675,1.808,2.626c0.4,0.95,0.62,1.89,0.655,2.82c0.037,0.93-0.127,1.815-0.49,2.655
				c-0.367,0.843-0.913,1.587-1.644,2.246c-1.097,0.947-2.145,1.533-3.147,1.75c-1.005,0.221-1.966,0.221-2.877,0
				c-0.911-0.217-1.761-0.582-2.545-1.093s-1.525-1.041-2.218-1.589c-1.497-1.133-2.949-1.868-4.354-2.218
				c-1.407-0.347-2.874-0.504-4.409-0.466C88.601,442.766,87.078,443.168,85.674,443.898z"/>
			<path fill="#333333" d="M138.157,429.115h3.011c0.951,0,1.846,0.172,2.685,0.519c0.838,0.348,1.561,0.821,2.163,1.426
				c0.601,0.603,1.076,1.313,1.422,2.136c0.349,0.821,0.521,1.704,0.521,2.655c0,0.947-0.172,1.834-0.521,2.655
				c-0.346,0.822-0.821,1.541-1.422,2.162c-0.603,0.621-1.325,1.113-2.163,1.479c-0.839,0.367-1.733,0.547-2.685,0.547h-3.011
				v31.213c0,0.95-0.174,1.822-0.519,2.627c-0.349,0.804-0.831,1.505-1.452,2.107s-1.342,1.078-2.164,1.425
				c-0.819,0.348-1.706,0.521-2.655,0.521s-1.834-0.173-2.655-0.521c-0.822-0.347-1.543-0.822-2.164-1.425s-1.104-1.304-1.45-2.107
				c-0.347-0.805-0.521-1.677-0.521-2.627v-31.213h-2.573c-0.949,0-1.834-0.18-2.657-0.547c-0.82-0.365-1.541-0.857-2.16-1.479
				c-0.621-0.621-1.104-1.34-1.452-2.162c-0.347-0.821-0.521-1.708-0.521-2.655c0-0.951,0.174-1.834,0.521-2.655
				c0.348-0.822,0.831-1.533,1.452-2.136c0.619-0.604,1.34-1.078,2.16-1.426c0.823-0.347,1.708-0.519,2.657-0.519h2.573v-11.938
				c0-0.949,0.174-1.825,0.521-2.628c0.346-0.803,0.829-1.507,1.45-2.109c0.621-0.601,1.342-1.074,2.164-1.422
				c0.821-0.349,1.706-0.522,2.655-0.522s1.836,0.174,2.655,0.522c0.822,0.348,1.543,0.821,2.164,1.422
				c0.621,0.603,1.104,1.307,1.452,2.109c0.345,0.803,0.519,1.679,0.519,2.628V429.115z"/>
			<path fill="#333333" d="M154.228,414.275c0.384-0.877,0.904-1.643,1.562-2.3c0.656-0.657,1.432-1.177,2.328-1.561
				c0.893-0.384,1.834-0.577,2.818-0.577c0.986,0,1.926,0.193,2.82,0.577c0.893,0.384,1.679,0.903,2.354,1.561
				s1.205,1.423,1.589,2.3c0.382,0.876,0.574,1.825,0.574,2.845c0,0.986-0.192,1.928-0.574,2.82
				c-0.384,0.896-0.913,1.672-1.589,2.328c-0.676,0.657-1.462,1.178-2.354,1.562c-0.895,0.384-1.834,0.574-2.82,0.574
				c-0.984,0-1.926-0.19-2.818-0.574c-0.896-0.384-1.672-0.904-2.328-1.562c-0.657-0.656-1.178-1.432-1.562-2.328
				c-0.384-0.893-0.574-1.834-0.574-2.82C153.653,416.101,153.844,415.151,154.228,414.275z M167.781,473.85
				c0,0.951-0.174,1.827-0.521,2.632c-0.348,0.801-0.833,1.512-1.452,2.132c-0.621,0.623-1.34,1.105-2.163,1.452
				c-0.82,0.348-1.688,0.521-2.6,0.521c-0.949,0-1.836-0.173-2.656-0.521c-0.823-0.347-1.542-0.829-2.163-1.452
				c-0.621-0.62-1.113-1.331-1.479-2.132c-0.365-0.805-0.547-1.681-0.547-2.632v-38.164c0-0.913,0.182-1.779,0.547-2.602
				c0.365-0.821,0.857-1.542,1.479-2.163c0.621-0.619,1.358-1.104,2.218-1.448c0.859-0.351,1.761-0.521,2.712-0.521
				c0.911,0,1.777,0.17,2.6,0.521c0.821,0.344,1.523,0.829,2.109,1.448c0.582,0.621,1.048,1.342,1.396,2.163
				c0.347,0.822,0.521,1.688,0.521,2.602V473.85z"/>
			<path fill="#333333" d="M198.882,458.629l11.336-25.57c0.365-0.843,0.874-1.57,1.533-2.193c0.658-0.62,1.387-1.086,2.189-1.393
				c0.805-0.313,1.652-0.459,2.547-0.441c0.895,0.021,1.778,0.211,2.656,0.574c0.876,0.402,1.624,0.934,2.245,1.591
				c0.62,0.657,1.086,1.395,1.396,2.214c0.307,0.823,0.455,1.681,0.437,2.577c-0.018,0.893-0.227,1.779-0.627,2.655l-17.469,37.891
				c-0.438,0.914-0.986,1.662-1.644,2.244c-0.476,0.478-1.078,0.876-1.806,1.207c-0.549,0.255-1.17,0.437-1.862,0.545
				c-0.146,0.037-0.294,0.057-0.438,0.057h-0.658c-0.146,0-0.273-0.008-0.384-0.03c-0.106-0.015-0.238-0.026-0.384-0.026
				c-0.292-0.071-0.601-0.145-0.929-0.219c-0.329-0.071-0.64-0.182-0.932-0.326c-0.692-0.293-1.352-0.748-1.971-1.371
				c-0.586-0.547-1.076-1.239-1.479-2.08l-17.577-37.946c-0.402-0.876-0.612-1.762-0.631-2.656s0.127-1.751,0.438-2.575
				c0.312-0.821,0.775-1.559,1.396-2.214c0.621-0.66,1.352-1.187,2.191-1.591c0.876-0.363,1.762-0.556,2.656-0.574
				c0.895-0.017,1.744,0.139,2.545,0.466c0.805,0.329,1.525,0.796,2.163,1.398c0.639,0.601,1.161,1.338,1.562,2.218L198.882,458.629
				z"/>
			<path fill="#333333" d="M229.957,414.275c0.386-0.877,0.902-1.643,1.561-2.3c0.657-0.657,1.432-1.177,2.326-1.561
				c0.896-0.384,1.834-0.577,2.82-0.577c0.984,0,1.924,0.193,2.819,0.577c0.896,0.384,1.68,0.903,2.355,1.561s1.205,1.423,1.589,2.3
				c0.382,0.876,0.575,1.825,0.575,2.845c0,0.986-0.193,1.928-0.575,2.82c-0.384,0.896-0.913,1.672-1.589,2.328
				c-0.676,0.657-1.459,1.178-2.355,1.562c-0.896,0.384-1.835,0.574-2.819,0.574c-0.986,0-1.924-0.19-2.82-0.574
				c-0.895-0.384-1.669-0.904-2.326-1.562c-0.658-0.656-1.175-1.432-1.561-2.328c-0.382-0.893-0.576-1.834-0.576-2.82
				C229.381,416.101,229.575,415.151,229.957,414.275z M243.509,473.85c0,0.951-0.173,1.827-0.519,2.632
				c-0.349,0.801-0.831,1.512-1.452,2.132c-0.621,0.623-1.344,1.105-2.164,1.452c-0.819,0.348-1.688,0.521-2.601,0.521
				c-0.947,0-1.835-0.173-2.656-0.521c-0.821-0.347-1.54-0.829-2.161-1.452c-0.622-0.62-1.114-1.331-1.479-2.132
				c-0.367-0.805-0.547-1.681-0.547-2.632v-38.164c0-0.913,0.18-1.779,0.547-2.602c0.364-0.821,0.856-1.542,1.479-2.163
				c0.621-0.619,1.358-1.104,2.216-1.448c0.858-0.351,1.763-0.521,2.71-0.521c0.913,0,1.781,0.17,2.602,0.521
				c0.823,0.344,1.526,0.829,2.11,1.448c0.582,0.621,1.048,1.342,1.396,2.163c0.346,0.822,0.519,1.688,0.519,2.602V473.85z"/>
			<path fill="#333333" d="M272.806,429.115h3.009c0.949,0,1.846,0.172,2.686,0.519c0.839,0.348,1.56,0.821,2.16,1.426
				c0.606,0.603,1.08,1.313,1.426,2.136c0.345,0.821,0.521,1.704,0.521,2.655c0,0.947-0.176,1.834-0.521,2.655
				c-0.346,0.822-0.819,1.541-1.426,2.162c-0.601,0.621-1.321,1.113-2.16,1.479c-0.84,0.367-1.736,0.547-2.686,0.547h-3.009v31.213
				c0,0.95-0.175,1.822-0.522,2.627c-0.348,0.804-0.831,1.505-1.45,2.107c-0.62,0.603-1.342,1.078-2.164,1.425
				c-0.819,0.348-1.705,0.521-2.653,0.521c-0.949,0-1.836-0.173-2.656-0.521c-0.819-0.347-1.542-0.822-2.163-1.425
				s-1.104-1.304-1.452-2.107c-0.349-0.805-0.521-1.677-0.521-2.627v-31.213h-2.573c-0.949,0-1.832-0.18-2.655-0.547
				c-0.82-0.365-1.541-0.857-2.162-1.479s-1.106-1.34-1.45-2.162c-0.349-0.821-0.522-1.708-0.522-2.655
				c0-0.951,0.174-1.834,0.522-2.655c0.344-0.822,0.829-1.533,1.45-2.136c0.621-0.604,1.342-1.078,2.162-1.426
				c0.823-0.347,1.706-0.519,2.655-0.519h2.573v-11.938c0-0.949,0.172-1.825,0.521-2.628c0.348-0.803,0.831-1.507,1.452-2.109
				c0.621-0.601,1.344-1.074,2.163-1.422c0.82-0.349,1.707-0.522,2.656-0.522c0.948,0,1.834,0.174,2.653,0.522
				c0.822,0.348,1.544,0.821,2.164,1.422c0.619,0.603,1.103,1.307,1.45,2.109s0.522,1.679,0.522,2.628V429.115z"/>
			<path fill="#333333" d="M308.889,458.355l11.442-25.297c0.366-0.843,0.879-1.57,1.534-2.193c0.657-0.62,1.389-1.086,2.189-1.393
				c0.803-0.313,1.653-0.459,2.548-0.441c0.895,0.021,1.779,0.211,2.657,0.574c0.874,0.402,1.622,0.934,2.244,1.591
				c0.619,0.657,1.085,1.395,1.396,2.214c0.31,0.823,0.455,1.681,0.438,2.577c-0.019,0.893-0.229,1.779-0.631,2.655l-26.611,57.276
				c-0.402,0.874-0.939,1.613-1.615,2.216c-0.677,0.601-1.426,1.068-2.243,1.396c-0.822,0.329-1.681,0.484-2.576,0.468
				c-0.895-0.021-1.761-0.23-2.601-0.631c-1.752-0.805-2.856-2.025-3.313-3.67c-0.457-1.642-0.265-3.376,0.574-5.201l7.338-16.264
				l-16.48-35.646c-0.406-0.876-0.613-1.762-0.631-2.656c-0.019-0.895,0.128-1.751,0.438-2.575c0.311-0.821,0.774-1.559,1.396-2.214
				c0.62-0.66,1.35-1.187,2.19-1.591c0.877-0.363,1.761-0.556,2.655-0.574c0.895-0.017,1.742,0.139,2.545,0.466
				c0.805,0.329,1.527,0.796,2.166,1.398c0.636,0.601,1.158,1.338,1.559,2.218L308.889,458.355z"/>
			<path fill="#333333" d="M360.688,410.495c3.286,0,6.443,0.414,9.472,1.233c3.031,0.821,5.867,1.989,8.517,3.506
				c2.646,1.516,5.056,3.338,7.229,5.476c2.171,2.134,4.033,4.499,5.584,7.089c1.55,2.593,2.757,5.396,3.614,8.407
				c0.857,3.012,1.286,6.159,1.286,9.443c0,3.285-0.429,6.427-1.286,9.418c-0.857,2.994-2.064,5.787-3.614,8.381
				c-1.551,2.59-3.413,4.937-5.584,7.035c-2.173,2.1-4.582,3.896-7.229,5.394c-2.649,1.497-5.485,2.655-8.517,3.476
				c-3.028,0.821-6.186,1.233-9.472,1.233h-12.212c-0.947,0-1.834-0.173-2.656-0.521c-0.817-0.347-1.54-0.822-2.161-1.425
				s-1.104-1.304-1.452-2.107c-0.347-0.805-0.521-1.677-0.521-2.627v-56.729c0-0.949,0.174-1.825,0.521-2.628
				c0.348-0.803,0.831-1.507,1.452-2.109c0.621-0.601,1.344-1.074,2.161-1.422c0.822-0.349,1.709-0.522,2.656-0.522H360.688z
				 M382.703,445.68c0-3.035-0.567-5.859-1.699-8.473c-1.133-2.612-2.693-4.879-4.681-6.797c-1.992-1.918-4.318-3.427-6.983-4.523
				c-2.665-1.099-5.53-1.647-8.596-1.647h-5.476v42.767h5.476c3.065,0,5.931-0.529,8.596-1.591c2.665-1.06,4.991-2.53,6.983-4.411
				c1.987-1.883,3.548-4.131,4.681-6.743C382.136,451.645,382.703,448.785,382.703,445.68z"/>
			<path fill="#333333" d="M404.575,414.275c0.382-0.877,0.904-1.643,1.559-2.3c0.661-0.657,1.434-1.177,2.327-1.561
				c0.896-0.384,1.836-0.577,2.82-0.577c0.987,0,1.926,0.193,2.822,0.577c0.895,0.384,1.677,0.903,2.354,1.561
				c0.675,0.657,1.203,1.423,1.587,2.3c0.384,0.876,0.576,1.825,0.576,2.845c0,0.986-0.192,1.928-0.576,2.82
				c-0.384,0.896-0.912,1.672-1.587,2.328c-0.678,0.657-1.46,1.178-2.354,1.562c-0.896,0.384-1.835,0.574-2.822,0.574
				c-0.984,0-1.924-0.19-2.82-0.574c-0.894-0.384-1.666-0.904-2.327-1.562c-0.654-0.656-1.177-1.432-1.559-2.328
				c-0.382-0.893-0.576-1.834-0.576-2.82C403.999,416.101,404.193,415.151,404.575,414.275z M418.127,473.85
				c0,0.951-0.174,1.827-0.521,2.632c-0.346,0.801-0.831,1.512-1.45,2.132c-0.623,0.623-1.342,1.105-2.163,1.452
				c-0.822,0.348-1.688,0.521-2.6,0.521c-0.951,0-1.836-0.173-2.66-0.521c-0.819-0.347-1.538-0.829-2.157-1.452
				c-0.623-0.62-1.117-1.331-1.48-2.132c-0.367-0.805-0.547-1.681-0.547-2.632v-38.164c0-0.913,0.18-1.779,0.547-2.602
				c0.363-0.821,0.857-1.542,1.48-2.163c0.619-0.619,1.356-1.104,2.216-1.448c0.855-0.351,1.761-0.521,2.71-0.521
				c0.911,0,1.777,0.17,2.602,0.521c0.819,0.344,1.523,0.829,2.107,1.448c0.582,0.621,1.05,1.342,1.396,2.163
				c0.347,0.822,0.521,1.688,0.521,2.602V473.85z"/>
			<path fill="#333333" d="M425.957,455.123c0-3.613,0.694-6.999,2.083-10.158c1.387-3.155,3.265-5.922,5.64-8.297
				c2.373-2.371,5.135-4.24,8.296-5.608c3.157-1.372,6.524-2.055,10.101-2.055c3.541,0,6.882,0.675,10.022,2.026
				c3.139,1.35,5.888,3.184,8.24,5.502c2.354,2.319,4.226,5.048,5.612,8.187c1.389,3.139,2.117,6.481,2.189,10.021v18.891
				c0,0.951-0.182,1.853-0.546,2.712c-0.365,0.857-0.859,1.597-1.479,2.218c-0.621,0.621-1.35,1.113-2.189,1.479
				c-0.841,0.363-1.754,0.547-2.738,0.547c-1.387,0-2.592-0.337-3.614-1.013c-1.023-0.674-1.791-1.563-2.3-2.658
				c-1.971,1.318-4.063,2.358-6.27,3.124c-2.211,0.766-4.517,1.151-6.929,1.151c-3.576,0-6.943-0.686-10.101-2.056
				c-3.161-1.369-5.923-3.231-8.296-5.584c-2.375-2.356-4.253-5.121-5.64-8.299C426.651,462.076,425.957,458.702,425.957,455.123z
				 M439.539,455.149c0,1.722,0.327,3.339,0.988,4.858c0.658,1.519,1.553,2.845,2.688,3.981c1.136,1.132,2.461,2.019,3.979,2.659
				c1.516,0.64,3.137,0.96,4.858,0.96c1.754,0,3.392-0.32,4.911-0.96c1.516-0.641,2.833-1.527,3.949-2.659
				c1.117-1.137,2.004-2.463,2.663-3.981c0.658-1.52,0.986-3.137,0.986-4.858c0-1.751-0.328-3.382-0.986-4.883
				c-0.659-1.499-1.546-2.814-2.663-3.95c-1.116-1.137-2.434-2.021-3.949-2.661c-1.52-0.641-3.157-0.962-4.911-0.962
				c-1.722,0-3.343,0.321-4.858,0.962c-1.518,0.64-2.843,1.524-3.979,2.661c-1.135,1.136-2.029,2.451-2.688,3.95
				C439.866,451.768,439.539,453.398,439.539,455.149z"/>
			<path fill="#333333" d="M502.15,476.481c-0.346,0.801-0.831,1.512-1.45,2.132c-0.619,0.623-1.342,1.105-2.161,1.452
				c-0.822,0.348-1.692,0.521-2.602,0.521c-0.951,0-1.834-0.173-2.656-0.521c-0.821-0.347-1.544-0.829-2.163-1.452
				c-0.621-0.62-1.113-1.331-1.48-2.132c-0.365-0.805-0.545-1.681-0.545-2.632v-38.164c0-0.913,0.18-1.779,0.545-2.602
				c0.367-0.821,0.859-1.542,1.48-2.163c0.619-0.619,1.36-1.104,2.218-1.448c0.855-0.351,1.759-0.521,2.71-0.521
				c1.389,0,2.629,0.382,3.723,1.146c1.095,0.768,1.899,1.756,2.408,2.961c2.046-1.28,4.245-2.265,6.599-2.961
				c2.354-0.692,4.811-1.056,7.367-1.093h0.382c2.227,0,3.962,0.629,5.202,1.89c1.239,1.26,1.864,2.873,1.864,4.846
				c0,0.984-0.184,1.891-0.551,2.71c-0.364,0.821-0.866,1.532-1.506,2.136c-0.639,0.603-1.385,1.066-2.244,1.396
				c-0.859,0.328-1.778,0.494-2.766,0.494h-0.275c-1.86,0.038-3.61,0.431-5.254,1.178c-1.643,0.748-3.086,1.749-4.328,3.011
				c-1.239,1.258-2.216,2.73-2.928,4.407c-0.713,1.679-1.068,3.468-1.068,5.368v17.41
				C502.671,474.801,502.499,475.677,502.15,476.481z"/>
			<path fill="#333333" d="M550.254,458.355l11.444-25.297c0.363-0.843,0.876-1.57,1.533-2.193c0.659-0.62,1.387-1.086,2.189-1.393
				c0.805-0.313,1.652-0.459,2.547-0.441c0.895,0.021,1.78,0.211,2.656,0.574c0.878,0.402,1.622,0.934,2.246,1.591
				c0.619,0.657,1.085,1.395,1.396,2.214c0.31,0.823,0.455,1.681,0.438,2.577c-0.021,0.893-0.229,1.779-0.631,2.655l-26.611,57.276
				c-0.402,0.874-0.941,1.613-1.617,2.216c-0.676,0.601-1.424,1.068-2.245,1.396c-0.818,0.329-1.678,0.484-2.57,0.468
				c-0.896-0.021-1.763-0.23-2.603-0.631c-1.752-0.805-2.856-2.025-3.313-3.67c-0.456-1.642-0.264-3.376,0.579-5.201l7.334-16.264
				l-16.48-35.646c-0.404-0.876-0.612-1.762-0.631-2.656s0.127-1.751,0.438-2.575c0.309-0.821,0.776-1.559,1.396-2.214
				c0.62-0.66,1.35-1.187,2.189-1.591c0.876-0.363,1.76-0.556,2.656-0.574c0.896-0.017,1.742,0.139,2.545,0.466
				c0.805,0.329,1.527,0.796,2.164,1.398c0.64,0.601,1.16,1.338,1.561,2.218L550.254,458.355z"/>
		</g>
	</g>
</g>
<g id="Layer_2">
</g>
</svg>
