<?xml version="1.0" encoding="utf-8"?>
<!-- Generator: Adobe Illustrator 15.1.0, SVG Export Plug-In . SVG Version: 6.00 Build 0)  -->
<!DOCTYPE svg PUBLIC "-//W3C//DTD SVG 1.1//EN" "http://www.w3.org/Graphics/SVG/1.1/DTD/svg11.dtd">
<svg version="1.1" xmlns="http://www.w3.org/2000/svg" xmlns:xlink="http://www.w3.org/1999/xlink" x="0px" y="0px" width="1000px"
	 height="224.222px" viewBox="0 0 1000 224.222" enable-background="new 0 0 1000 224.222" xml:space="preserve">
<g id="Layer_1">
	<g>
		<g>
			<path fill="#FF6600" d="M223.837,16.011v191.98c0,8.826-7.182,16.008-16.011,16.008H15.847c-8.827,0-16.01-7.182-16.01-16.008
				V16.011C-0.163,7.182,7.02,0,15.847,0h191.979C216.655,0,223.837,7.182,223.837,16.011z"/>
			<path opacity="0.3" fill="#F4F3F2" d="M207.826,0.001H15.847c-8.828,0-16.01,7.182-16.01,16.01v2.815
				c0-8.829,7.182-16.012,16.01-16.012h191.979c8.828,0,16.011,7.183,16.011,16.012v-2.815
				C223.837,7.183,216.654,0.001,207.826,0.001z"/>
			<path fill="#F2570A" d="M177.88,51.021l-0.015-0.017l-0.412-0.411c-0.162-0.132-0.34-0.242-0.537-0.335
				c-0.018-0.009-0.034-0.017-0.054-0.022c-2.869-1.289-9.038,1.275-16.404,6.471c-1.687-9.814-4.622-16.313-7.97-16.313
				c-3.343,0-6.283,6.498-7.965,16.313c-8.157-5.753-14.854-8.28-17.216-5.922c-2.366,2.355,0.17,9.022,5.945,17.145
				c-2.928,0.498-5.563,1.109-7.817,1.808c-0.38,0.118-0.749,0.236-1.105,0.357l-26.857-30.11H42.985v10.699H39.99v7.193h2.995
				V72.27H39.99v7.195h2.995v14.391H39.99v7.195h2.995v10.697l17.359,20.069H42.536c-3.827,0-6.968,3.127-6.968,6.948v38.31
				c0,1.68,0.608,3.226,1.616,4.429c0.025,0.031,0.051,0.063,0.079,0.092c0.116,0.137,0.237,0.266,0.364,0.393l0.017,0.018
				l42.158,41.993h128.023c8.829,0,16.011-7.182,16.011-16.008V96.798L177.88,51.021z"/>
			<path fill="#FFFFFF" d="M97.919,131.817H80.113c0-5.434-4.436-9.855-9.88-9.855c-0.885,0-1.743,0.115-2.565,0.35
				c-0.356,0.093-0.706,0.208-1.045,0.34c-3.68,1.43-6.278,4.997-6.278,9.166H42.536c-3.827,0-6.968,3.127-6.968,6.948v38.31
				c0,1.68,0.608,3.226,1.616,4.429c0.025,0.031,0.051,0.063,0.079,0.092c0.116,0.137,0.237,0.266,0.364,0.393l0.017,0.018
				c0.122,0.119,0.249,0.234,0.38,0.343c1.217,1.038,2.797,1.669,4.512,1.669h55.383c3.831,0,6.971-3.124,6.971-6.942v-38.31
				C104.89,134.944,101.75,131.817,97.919,131.817z M65.137,131.817c0-2.8,2.284-5.077,5.097-5.077c1.884,0,3.534,1.035,4.407,2.563
				c0.427,0.749,0.673,1.605,0.673,2.514H65.137z"/>
			<g>
				<path fill="#FFFFFF" d="M174.106,175.251c-5.213,4.878-12.12,8.012-19.761,8.448v-21.318c4.267-0.172,8.429-0.94,12.434-2.291
					h0.002c0.542,2.096,1.245,4.152,2.106,6.164C170.267,169.466,172.013,172.474,174.106,175.251z"/>
				<path fill="#FFFFFF" d="M150.637,162.381v21.318c-7.93-0.454-15.066-3.809-20.342-9.005c2.541-3.122,4.623-6.562,6.213-10.271
					c0.615-1.433,1.148-2.89,1.6-4.367C142.141,161.429,146.338,162.207,150.637,162.381z"/>
				<path fill="#FFFFFF" d="M168.888,132.315c-2.304,5.376-3.474,11.085-3.474,16.968c0,2.43,0.199,4.83,0.595,7.188
					c-3.674,1.287-7.591,2.065-11.663,2.246V121.86c6.262,0.359,12.028,2.528,16.775,5.981
					C170.292,129.283,169.548,130.775,168.888,132.315z"/>
				<path fill="#FFFFFF" d="M150.637,121.86v36.857c-4.051-0.179-7.946-0.95-11.604-2.224c0.633-2.951,0.951-5.972,0.951-9.039
					c0-5.884-1.169-11.594-3.476-16.969c-0.492-1.148-1.03-2.27-1.615-3.364C139.434,124.088,144.822,122.194,150.637,121.86z"/>
				<path fill="#FFFFFF" d="M183.9,152.779c0,7.5-2.703,14.378-7.201,19.735c-2.973-4.083-5.185-8.741-6.427-13.768
					c5.031-2.18,9.561-5.235,13.471-9.089C183.848,150.685,183.9,151.727,183.9,152.779z"/>
				<path fill="#FFFFFF" d="M182.935,145.132c-3.696,4.155-8.251,7.551-13.391,9.913c-0.276-1.882-0.421-3.806-0.421-5.762
					c0-6.891,1.779-13.381,4.91-19.042C178.305,134.209,181.446,139.347,182.935,145.132z"/>
				<path fill="#FFFFFF" d="M134.634,158.716c-1.443,4.836-3.793,9.294-6.855,13.183c-4.195-5.263-6.697-11.904-6.697-19.119
					c0-1.053,0.054-2.095,0.158-3.121C125.13,153.492,129.633,156.537,134.634,158.716z"/>
				<path fill="#FFFFFF" d="M136.272,147.455c0,2.608-0.255,5.161-0.74,7.631c-5.178-2.362-9.767-5.774-13.484-9.954
					c1.595-6.204,5.093-11.661,9.844-15.734C134.691,134.824,136.272,140.962,136.272,147.455z"/>
			</g>
			<path fill="#FFFFFF" d="M188.102,75.868c0-3.332-6.523-6.262-16.375-7.939c5.594-7.865,8.145-14.367,6.153-16.908l-0.015-0.017
				c-0.059-0.079-0.127-0.152-0.194-0.22c-0.071-0.071-0.142-0.135-0.218-0.191c-0.162-0.132-0.34-0.242-0.537-0.335
				c-0.018-0.009-0.034-0.017-0.054-0.022c-2.869-1.289-9.038,1.275-16.404,6.471c-1.687-9.814-4.622-16.313-7.97-16.313
				c-3.343,0-6.283,6.498-7.965,16.313c-8.157-5.753-14.854-8.28-17.216-5.922c-2.366,2.355,0.17,9.022,5.945,17.145
				c-2.928,0.498-5.563,1.109-7.817,1.808c-0.38,0.118-0.749,0.236-1.105,0.357c-2.345,0.802-4.212,1.705-5.492,2.682
				c-1.271,0.972-1.961,2.01-1.961,3.093c0,0.779,0.358,1.54,1.034,2.266c0.07,0.073,0.145,0.149,0.221,0.22
				c2.343,2.276,7.82,4.208,15.121,5.452c-5.775,8.122-8.312,14.789-5.945,17.144c2.362,2.359,9.056-0.168,17.216-5.921
				c1.682,9.812,4.622,16.313,7.965,16.313c3.348,0,6.283-6.501,7.968-16.313c8.156,5.753,14.85,8.28,17.215,5.921
				c2.365-2.354-0.17-9.021-5.947-17.144C181.575,82.128,188.102,79.197,188.102,75.868z M152.488,86.645
				c-5.973,0-10.818-4.827-10.818-10.776c0-5.955,4.846-10.779,10.818-10.779c5.978,0,10.818,4.824,10.818,10.779
				C163.307,81.817,158.466,86.645,152.488,86.645z"/>
			<g>
				<path fill="#FFFFFF" d="M42.985,39.983v10.699H39.99v7.193h2.995V72.27H39.99v7.195h2.995v14.391H39.99v7.195h2.995v10.697
					h54.487V39.983H42.985z M69.608,95.06c-4.198,0-8.08-1.337-11.244-3.611c-2.617-1.871-4.741-4.387-6.143-7.309
					c-1.204-2.507-1.88-5.311-1.88-8.274c0-10.599,8.626-19.19,19.267-19.19c6.926,0,12.997,3.637,16.391,9.099
					c0.139,0.223,0.271,0.445,0.397,0.673c0.006,0.005,0.009,0.008,0.009,0.014c1.574,2.778,2.469,5.989,2.469,9.405
					C88.874,86.465,80.249,95.06,69.608,95.06z"/>
				<path fill="#FFFFFF" d="M69.608,61.718c-7.828,0-14.2,6.347-14.2,14.147c0,7.802,6.372,14.148,14.2,14.148
					c7.83,0,14.201-6.347,14.201-14.148C83.81,68.064,77.438,61.718,69.608,61.718z M67.373,80.471V67.71h4.363v8.418h8.45v4.343
					H67.373z"/>
			</g>
			<path opacity="0.25" fill="#FF6600" d="M207.826,223.999H15.847c-8.828,0-16.01-7.182-16.01-16.01v-2.815
				c0,8.829,7.182,16.012,16.01,16.012h191.979c8.828,0,16.011-7.183,16.011-16.012v2.815
				C223.837,216.817,216.654,223.999,207.826,223.999z"/>
		</g>
		<g>
			<path fill="#333333" d="M327.063,133.84h-32.008l-7.15,17.567c-0.465,1.111-1.112,2.06-1.945,2.847
				c-0.833,0.786-1.783,1.364-2.848,1.735c-1.063,0.371-2.185,0.545-3.366,0.52c-1.18-0.021-2.326-0.265-3.437-0.729
				c-1.11-0.461-2.037-1.109-2.776-1.944c-0.743-0.833-1.284-1.757-1.632-2.776c-0.347-1.017-0.497-2.094-0.452-3.228
				c0.047-1.135,0.323-2.257,0.834-3.369l31.174-71.584c0.742-1.619,1.793-2.892,3.158-3.818c1.365-0.925,2.951-1.39,4.758-1.39
				c1.667,0,3.194,0.453,4.581,1.355c1.389,0.902,2.432,2.164,3.127,3.783l30.756,71.653c0.464,1.112,0.729,2.234,0.799,3.369
				c0.071,1.134-0.058,2.198-0.382,3.193c-0.325,0.995-0.845,1.908-1.561,2.741c-0.72,0.835-1.633,1.506-2.745,2.014
				c-1.109,0.511-2.231,0.765-3.366,0.765s-2.222-0.185-3.262-0.556c-1.042-0.371-1.992-0.949-2.849-1.735
				c-0.858-0.787-1.538-1.735-2.049-2.847L327.063,133.84z M302.139,116.623h17.703l-8.954-21.456L302.139,116.623z"/>
			<path fill="#333333" d="M380.074,110.027c-1.782,0.925-3.323,2.128-4.618,3.609c-1.296,1.482-2.314,3.149-3.055,4.999
				c-0.741,1.852-1.11,3.729-1.11,5.625c0,1.853,0.369,3.691,1.11,5.521c0.74,1.827,1.759,3.472,3.055,4.93
				c1.295,1.458,2.836,2.662,4.618,3.61c1.779,0.949,3.713,1.445,5.797,1.492c1.944,0.094,3.795-0.08,5.556-0.521
				c1.759-0.438,3.611-1.4,5.555-2.881c0.879-0.695,1.816-1.365,2.811-2.015c0.995-0.647,2.071-1.098,3.23-1.353
				c1.156-0.254,2.37-0.243,3.646,0.033c1.272,0.278,2.603,1.019,3.991,2.223c0.925,0.833,1.607,1.782,2.05,2.847
				c0.437,1.065,0.646,2.186,0.625,3.368c-0.025,1.18-0.29,2.359-0.8,3.541c-0.511,1.179-1.272,2.279-2.291,3.296
				c-2.917,2.918-6.354,5.139-10.311,6.667c-3.958,1.527-8.111,2.291-12.463,2.291c-4.675,0-9.062-0.844-13.156-2.534
				c-4.098-1.689-7.674-4.004-10.729-6.942c-3.056-2.939-5.475-6.411-7.256-10.416c-1.782-4.003-2.674-8.343-2.674-13.018
				c0-4.629,0.892-8.979,2.674-13.054c1.781-4.072,4.2-7.612,7.256-10.624c3.055-3.008,6.631-5.38,10.729-7.115
				c4.095-1.736,8.481-2.604,13.156-2.604c4.396,0,8.563,0.763,12.498,2.289c3.934,1.529,7.358,3.751,10.275,6.667
				c1.019,1.018,1.78,2.129,2.291,3.332c0.51,1.204,0.786,2.396,0.833,3.576c0.047,1.18-0.163,2.302-0.625,3.368
				c-0.463,1.065-1.158,2.012-2.083,2.846c-1.389,1.204-2.719,1.943-3.991,2.221c-1.275,0.28-2.489,0.28-3.646,0
				c-1.159-0.278-2.235-0.739-3.23-1.388c-0.994-0.647-1.932-1.319-2.811-2.013c-1.899-1.435-3.737-2.371-5.521-2.812
				c-1.782-0.441-3.646-0.637-5.59-0.591C383.787,108.591,381.854,109.102,380.074,110.027z"/>
			<path fill="#333333" d="M446.623,91.279h3.82c1.203,0,2.337,0.22,3.401,0.66c1.065,0.44,1.979,1.042,2.741,1.805
				c0.766,0.764,1.365,1.666,1.809,2.707c0.438,1.042,0.657,2.164,0.657,3.369c0,1.204-0.22,2.324-0.657,3.366
				c-0.443,1.042-1.043,1.955-1.809,2.742c-0.762,0.788-1.676,1.413-2.741,1.875c-1.064,0.463-2.198,0.694-3.401,0.694h-3.82v39.578
				c0,1.203-0.219,2.313-0.658,3.332c-0.441,1.018-1.054,1.908-1.841,2.672c-0.786,0.765-1.7,1.366-2.743,1.807
				c-1.041,0.44-2.163,0.659-3.366,0.659c-1.204,0-2.326-0.219-3.368-0.659c-1.04-0.44-1.954-1.042-2.742-1.807
				c-0.787-0.764-1.399-1.654-1.839-2.672c-0.442-1.02-0.661-2.129-0.661-3.332v-39.578h-3.261c-1.205,0-2.327-0.231-3.369-0.694
				c-1.042-0.462-1.956-1.087-2.743-1.875c-0.786-0.787-1.401-1.7-1.839-2.742c-0.44-1.042-0.659-2.163-0.659-3.366
				c0-1.205,0.219-2.327,0.659-3.369c0.438-1.041,1.053-1.943,1.839-2.707c0.787-0.764,1.701-1.365,2.743-1.805
				c1.042-0.44,2.164-0.66,3.369-0.66h3.261V76.143c0-1.202,0.219-2.314,0.661-3.333c0.439-1.017,1.052-1.908,1.839-2.673
				c0.788-0.764,1.702-1.364,2.742-1.804c1.042-0.44,2.164-0.661,3.368-0.661c1.203,0,2.325,0.221,3.366,0.661
				c1.043,0.44,1.957,1.041,2.743,1.804c0.787,0.765,1.399,1.657,1.841,2.673c0.439,1.019,0.658,2.13,0.658,3.333V91.279z"/>
			<path fill="#333333" d="M467.001,72.463c0.485-1.11,1.147-2.083,1.98-2.916c0.833-0.833,1.814-1.493,2.95-1.98
				c1.133-0.485,2.325-0.729,3.576-0.729c1.248,0,2.44,0.243,3.574,0.729c1.135,0.488,2.129,1.147,2.985,1.98
				c0.855,0.833,1.528,1.806,2.014,2.916c0.486,1.111,0.729,2.316,0.729,3.611c0,1.25-0.242,2.442-0.729,3.575
				c-0.485,1.137-1.158,2.119-2.014,2.951c-0.856,0.833-1.851,1.494-2.985,1.98c-1.134,0.486-2.326,0.729-3.574,0.729
				c-1.251,0-2.443-0.243-3.576-0.729c-1.136-0.486-2.117-1.146-2.95-1.98c-0.833-0.832-1.495-1.814-1.98-2.951
				c-0.485-1.133-0.729-2.325-0.729-3.575C466.272,74.779,466.516,73.574,467.001,72.463z M484.186,148.006
				c0,1.203-0.221,2.313-0.66,3.332c-0.44,1.018-1.052,1.92-1.838,2.708c-0.788,0.786-1.701,1.399-2.743,1.84
				s-2.143,0.659-3.3,0.659c-1.204,0-2.325-0.219-3.365-0.659c-1.042-0.44-1.957-1.054-2.745-1.84
				c-0.786-0.788-1.411-1.69-1.872-2.708c-0.464-1.019-0.694-2.129-0.694-3.332V99.612c0-1.158,0.23-2.257,0.694-3.299
				c0.461-1.042,1.086-1.956,1.872-2.743c0.788-0.787,1.727-1.399,2.813-1.84c1.089-0.439,2.232-0.659,3.437-0.659
				c1.157,0,2.256,0.219,3.298,0.659c1.042,0.44,1.932,1.053,2.676,1.84c0.737,0.787,1.327,1.701,1.768,2.743
				c0.439,1.042,0.66,2.141,0.66,3.299V148.006z"/>
			<path fill="#333333" d="M523.623,128.705l14.372-32.425c0.461-1.064,1.111-1.991,1.943-2.777
				c0.835-0.788,1.762-1.377,2.778-1.771c1.019-0.393,2.094-0.578,3.229-0.556c1.134,0.024,2.257,0.267,3.366,0.729
				c1.113,0.51,2.06,1.182,2.85,2.015c0.787,0.833,1.377,1.769,1.771,2.811c0.392,1.042,0.578,2.129,0.554,3.264
				c-0.024,1.134-0.289,2.256-0.797,3.368l-22.149,48.047c-0.556,1.158-1.251,2.105-2.084,2.847
				c-0.602,0.603-1.364,1.109-2.291,1.526c-0.693,0.324-1.48,0.557-2.36,0.695c-0.185,0.047-0.371,0.069-0.556,0.069h-0.834
				c-0.185,0-0.347-0.011-0.485-0.036c-0.138-0.021-0.301-0.033-0.485-0.033c-0.371-0.092-0.763-0.185-1.181-0.279
				c-0.418-0.092-0.813-0.229-1.18-0.416c-0.88-0.369-1.713-0.948-2.499-1.734c-0.742-0.695-1.366-1.573-1.876-2.639l-22.287-48.117
				c-0.511-1.11-0.777-2.233-0.799-3.367c-0.024-1.134,0.162-2.223,0.556-3.263c0.391-1.042,0.981-1.979,1.771-2.812
				c0.785-0.834,1.713-1.505,2.775-2.015c1.111-0.461,2.232-0.705,3.369-0.729c1.135-0.023,2.211,0.173,3.229,0.59
				c1.018,0.417,1.934,1.007,2.742,1.771c0.809,0.764,1.469,1.7,1.979,2.813L523.623,128.705z"/>
			<path fill="#333333" d="M563.025,72.463c0.485-1.11,1.146-2.083,1.979-2.916c0.833-0.833,1.816-1.493,2.95-1.98
				c1.135-0.485,2.324-0.729,3.576-0.729c1.251,0,2.44,0.243,3.574,0.729c1.135,0.488,2.128,1.147,2.986,1.98
				c0.857,0.833,1.527,1.806,2.014,2.916c0.485,1.111,0.728,2.316,0.728,3.611c0,1.25-0.242,2.442-0.728,3.575
				c-0.486,1.137-1.156,2.119-2.014,2.951c-0.858,0.833-1.852,1.494-2.986,1.98c-1.134,0.486-2.323,0.729-3.574,0.729
				c-1.252,0-2.441-0.243-3.576-0.729c-1.134-0.486-2.117-1.146-2.95-1.98c-0.833-0.832-1.494-1.814-1.979-2.951
				c-0.486-1.133-0.729-2.325-0.729-3.575C562.296,74.779,562.539,73.574,563.025,72.463z M580.21,148.006
				c0,1.203-0.219,2.313-0.659,3.332c-0.441,1.018-1.054,1.92-1.841,2.708c-0.787,0.786-1.699,1.399-2.742,1.84
				c-1.041,0.44-2.143,0.659-3.298,0.659c-1.205,0-2.325-0.219-3.366-0.659c-1.042-0.44-1.956-1.054-2.746-1.84
				c-0.786-0.788-1.41-1.69-1.872-2.708c-0.464-1.019-0.694-2.129-0.694-3.332V99.612c0-1.158,0.23-2.257,0.694-3.299
				c0.462-1.042,1.086-1.956,1.872-2.743c0.79-0.787,1.726-1.399,2.813-1.84c1.089-0.439,2.234-0.659,3.437-0.659
				c1.159,0,2.257,0.219,3.298,0.659c1.042,0.44,1.935,1.053,2.676,1.84c0.739,0.787,1.328,1.701,1.77,2.743
				c0.44,1.042,0.659,2.141,0.659,3.299V148.006z"/>
			<path fill="#333333" d="M617.357,91.279h3.816c1.203,0,2.337,0.22,3.404,0.66c1.063,0.44,1.977,1.042,2.741,1.805
				c0.764,0.764,1.365,1.666,1.806,2.707c0.438,1.042,0.66,2.164,0.66,3.369c0,1.204-0.222,2.324-0.66,3.366
				c-0.44,1.042-1.042,1.955-1.806,2.742c-0.765,0.788-1.678,1.413-2.741,1.875c-1.067,0.463-2.201,0.694-3.404,0.694h-3.816v39.578
				c0,1.203-0.222,2.313-0.661,3.332c-0.439,1.018-1.055,1.908-1.84,2.672c-0.786,0.765-1.702,1.366-2.743,1.807
				c-1.04,0.44-2.164,0.659-3.367,0.659c-1.204,0-2.327-0.219-3.366-0.659c-1.042-0.44-1.958-1.042-2.744-1.807
				c-0.787-0.764-1.399-1.654-1.839-2.672c-0.442-1.02-0.661-2.129-0.661-3.332v-39.578h-3.261c-1.207,0-2.327-0.231-3.37-0.694
				c-1.04-0.462-1.955-1.087-2.742-1.875c-0.787-0.787-1.398-1.7-1.839-2.742c-0.438-1.042-0.66-2.163-0.66-3.366
				c0-1.205,0.222-2.327,0.66-3.369c0.44-1.041,1.052-1.943,1.839-2.707c0.787-0.764,1.702-1.365,2.742-1.805
				c1.043-0.44,2.163-0.66,3.37-0.66h3.261V76.143c0-1.202,0.219-2.314,0.661-3.333c0.439-1.017,1.052-1.908,1.839-2.673
				c0.786-0.764,1.702-1.364,2.744-1.804c1.039-0.44,2.162-0.661,3.366-0.661c1.203,0,2.327,0.221,3.367,0.661
				c1.041,0.44,1.957,1.041,2.743,1.804c0.785,0.765,1.4,1.657,1.84,2.673c0.439,1.019,0.661,2.13,0.661,3.333V91.279z"/>
			<path fill="#333333" d="M663.109,128.356l14.511-32.077c0.464-1.064,1.112-1.991,1.945-2.777
				c0.834-0.788,1.758-1.377,2.776-1.771c1.017-0.393,2.096-0.578,3.229-0.556c1.133,0.024,2.257,0.267,3.367,0.729
				c1.109,0.51,2.06,1.182,2.847,2.015s1.377,1.769,1.771,2.811c0.394,1.042,0.578,2.129,0.556,3.264
				c-0.023,1.134-0.289,2.256-0.798,3.368l-33.746,72.625c-0.506,1.111-1.191,2.049-2.047,2.813
				c-0.856,0.762-1.805,1.354-2.846,1.77c-1.043,0.416-2.131,0.613-3.266,0.59c-1.134-0.023-2.232-0.289-3.298-0.799
				c-2.22-1.018-3.622-2.568-4.199-4.652c-0.579-2.082-0.336-4.279,0.729-6.596l9.305-20.62l-20.897-45.201
				c-0.514-1.11-0.778-2.233-0.8-3.367c-0.024-1.134,0.161-2.223,0.555-3.263c0.394-1.042,0.983-1.979,1.771-2.812
				c0.787-0.834,1.711-1.505,2.777-2.015c1.11-0.461,2.232-0.705,3.367-0.729s2.21,0.173,3.229,0.59
				c1.018,0.417,1.933,1.007,2.743,1.771c0.81,0.764,1.469,1.7,1.978,2.813L663.109,128.356z"/>
			<path fill="#333333" d="M728.791,67.672c4.166,0,8.172,0.522,12.012,1.563c3.843,1.041,7.438,2.524,10.798,4.444
				c3.354,1.921,6.409,4.236,9.165,6.944c2.752,2.706,5.113,5.704,7.082,8.989c1.965,3.288,3.495,6.84,4.582,10.66
				c1.087,3.817,1.632,7.81,1.632,11.976s-0.545,8.149-1.632,11.942c-1.087,3.797-2.617,7.338-4.582,10.625
				c-1.969,3.285-4.33,6.259-7.082,8.922c-2.756,2.661-5.811,4.939-9.165,6.838c-3.359,1.899-6.955,3.367-10.798,4.408
				c-3.84,1.042-7.846,1.563-12.012,1.563H713.31c-1.204,0-2.327-0.219-3.368-0.659c-1.043-0.44-1.956-1.042-2.742-1.807
				c-0.788-0.764-1.401-1.654-1.841-2.672c-0.44-1.02-0.659-2.129-0.659-3.332V76.143c0-1.202,0.219-2.314,0.659-3.333
				c0.439-1.017,1.053-1.908,1.841-2.673c0.786-0.764,1.699-1.364,2.742-1.804c1.041-0.44,2.164-0.661,3.368-0.661H728.791z
				 M756.704,112.283c0-3.849-0.72-7.427-2.154-10.74c-1.434-3.314-3.412-6.188-5.934-8.621c-2.524-2.434-5.475-4.345-8.854-5.735
				c-3.379-1.392-7.013-2.086-10.901-2.086h-6.944v54.226h6.944c3.889,0,7.522-0.672,10.901-2.017
				c3.379-1.344,6.329-3.211,8.854-5.597c2.521-2.387,4.5-5.235,5.934-8.55C755.984,119.849,756.704,116.222,756.704,112.283z"/>
			<path fill="#333333" d="M784.439,72.463c0.486-1.11,1.146-2.083,1.978-2.916c0.836-0.833,1.816-1.493,2.951-1.98
				c1.134-0.485,2.326-0.729,3.575-0.729c1.251,0,2.443,0.243,3.577,0.729c1.135,0.488,2.127,1.147,2.985,1.98
				c0.858,0.833,1.527,1.806,2.014,2.916c0.485,1.111,0.729,2.316,0.729,3.611c0,1.25-0.243,2.442-0.729,3.575
				c-0.486,1.137-1.155,2.119-2.014,2.951c-0.858,0.833-1.851,1.494-2.985,1.98c-1.134,0.486-2.326,0.729-3.577,0.729
				c-1.249,0-2.441-0.243-3.575-0.729c-1.135-0.486-2.115-1.146-2.951-1.98c-0.832-0.832-1.491-1.814-1.978-2.951
				c-0.485-1.133-0.729-2.325-0.729-3.575C783.711,74.779,783.954,73.574,784.439,72.463z M801.624,148.006
				c0,1.203-0.221,2.313-0.661,3.332c-0.438,1.018-1.051,1.92-1.839,2.708c-0.789,0.786-1.7,1.399-2.742,1.84
				c-1.041,0.44-2.143,0.659-3.298,0.659c-1.204,0-2.326-0.219-3.368-0.659c-1.04-0.44-1.957-1.054-2.74-1.84
				c-0.789-0.788-1.414-1.69-1.878-2.708c-0.462-1.019-0.692-2.129-0.692-3.332V99.612c0-1.158,0.23-2.257,0.692-3.299
				c0.464-1.042,1.089-1.956,1.878-2.743c0.783-0.787,1.722-1.399,2.811-1.84c1.088-0.439,2.232-0.659,3.437-0.659
				c1.155,0,2.257,0.219,3.298,0.659c1.043,0.44,1.931,1.053,2.672,1.84c0.742,0.787,1.332,1.701,1.771,2.743
				c0.44,1.042,0.661,2.141,0.661,3.299V148.006z"/>
			<path fill="#333333" d="M811.553,124.259c0-4.582,0.88-8.875,2.639-12.879c1.761-4.003,4.141-7.509,7.152-10.519
				c3.008-3.008,6.516-5.381,10.52-7.117c4.004-1.736,8.273-2.604,12.811-2.604c4.489,0,8.723,0.856,12.705,2.568
				c3.98,1.712,7.464,4.039,10.449,6.979c2.985,2.94,5.358,6.4,7.117,10.38c1.758,3.98,2.684,8.217,2.775,12.705v23.956
				c0,1.202-0.229,2.348-0.691,3.437c-0.465,1.088-1.092,2.023-1.875,2.81c-0.79,0.79-1.714,1.413-2.779,1.876
				c-1.063,0.463-2.22,0.694-3.47,0.694c-1.76,0-3.288-0.429-4.584-1.284c-1.298-0.855-2.269-1.979-2.915-3.367
				c-2.499,1.665-5.152,2.984-7.952,3.957c-2.801,0.971-5.726,1.458-8.78,1.458c-4.537,0-8.807-0.868-12.811-2.603
				c-4.004-1.737-7.512-4.098-10.52-7.083c-3.012-2.985-5.392-6.492-7.152-10.52C812.433,133.077,811.553,128.797,811.553,124.259z
				 M828.773,124.294c0,2.181,0.416,4.233,1.252,6.158c0.835,1.925,1.972,3.605,3.409,5.047c1.438,1.438,3.119,2.562,5.045,3.374
				c1.924,0.812,3.979,1.215,6.157,1.215c2.228,0,4.305-0.403,6.228-1.215c1.924-0.813,3.595-1.937,5.012-3.374
				c1.413-1.441,2.537-3.122,3.373-5.047s1.253-3.978,1.253-6.158c0-2.225-0.417-4.291-1.253-6.192s-1.96-3.572-3.373-5.01
				c-1.417-1.438-3.088-2.564-5.012-3.375c-1.923-0.813-4-1.219-6.228-1.219c-2.178,0-4.233,0.407-6.157,1.219
				c-1.926,0.811-3.607,1.936-5.045,3.375c-1.438,1.438-2.574,3.109-3.409,5.01C829.189,120.003,828.773,122.07,828.773,124.294z"/>
			<path fill="#333333" d="M908.164,151.338c-0.439,1.018-1.054,1.92-1.838,2.708c-0.788,0.786-1.703,1.399-2.745,1.84
				c-1.039,0.44-2.141,0.659-3.296,0.659c-1.205,0-2.326-0.219-3.369-0.659c-1.039-0.44-1.955-1.054-2.742-1.84
				c-0.786-0.788-1.411-1.69-1.874-2.708c-0.465-1.019-0.695-2.129-0.695-3.332V99.612c0-1.158,0.23-2.257,0.695-3.299
				c0.463-1.042,1.088-1.956,1.874-2.743c0.787-0.787,1.726-1.399,2.813-1.84c1.085-0.439,2.231-0.659,3.437-0.659
				c1.758,0,3.332,0.485,4.719,1.457c1.39,0.973,2.406,2.223,3.056,3.75c2.592-1.62,5.383-2.87,8.367-3.75
				c2.986-0.879,6.099-1.342,9.34-1.388h0.486c2.821,0,5.022,0.798,6.594,2.395c1.574,1.597,2.363,3.646,2.363,6.144
				c0,1.25-0.232,2.396-0.694,3.438c-0.465,1.041-1.102,1.943-1.912,2.708c-0.809,0.765-1.759,1.354-2.846,1.771
				c-1.087,0.417-2.255,0.625-3.505,0.625h-0.348c-2.361,0.046-4.581,0.543-6.666,1.492c-2.083,0.95-3.912,2.221-5.486,3.819
				c-1.571,1.596-2.81,3.46-3.714,5.589c-0.9,2.129-1.352,4.397-1.352,6.805v22.08C908.826,149.209,908.604,150.32,908.164,151.338z
				"/>
			<path fill="#333333" d="M969.158,128.356l14.514-32.077c0.462-1.064,1.109-1.991,1.942-2.777
				c0.834-0.788,1.758-1.377,2.776-1.771c1.021-0.393,2.097-0.578,3.23-0.556c1.134,0.024,2.256,0.267,3.369,0.729
				c1.109,0.51,2.058,1.182,2.844,2.015c0.787,0.833,1.378,1.769,1.771,2.811c0.394,1.042,0.578,2.129,0.557,3.264
				c-0.024,1.134-0.29,2.256-0.799,3.368l-33.745,72.625c-0.507,1.111-1.19,2.049-2.047,2.813c-0.857,0.762-1.806,1.354-2.847,1.77
				c-1.04,0.416-2.131,0.613-3.263,0.59c-1.137-0.023-2.234-0.289-3.298-0.799c-2.223-1.018-3.622-2.568-4.201-4.652
				c-0.579-2.082-0.336-4.279,0.729-6.596l9.303-20.62l-20.897-45.201c-0.511-1.11-0.777-2.233-0.799-3.367
				c-0.024-1.134,0.162-2.223,0.556-3.263c0.392-1.042,0.98-1.979,1.771-2.812c0.788-0.834,1.71-1.505,2.777-2.015
				c1.111-0.461,2.232-0.705,3.365-0.729c1.135-0.023,2.21,0.173,3.229,0.59c1.02,0.417,1.934,1.007,2.743,1.771
				c0.81,0.764,1.472,1.7,1.98,2.813L969.158,128.356z"/>
		</g>
	</g>
</g>
<g id="Layer_2">
</g>
</svg>
